<?xml version="1.0" encoding="UTF-8"?>
<!--Generator: Apple Native CoreSVG 149-->
<!DOCTYPE svg
PUBLIC "-//W3C//DTD SVG 1.1//EN"
       "http://www.w3.org/Graphics/SVG/1.1/DTD/svg11.dtd">
<svg version="1.1" xmlns="http://www.w3.org/2000/svg" xmlns:xlink="http://www.w3.org/1999/xlink" width="3300" height="2200">
 <!--glyph: "uni1003CB.medium", point size: 100.000000, font version: "Version 16.0d18e1", template writer version: "8"-->
 <g id="Notes">
  <rect height="2200" id="artboard" style="fill:white;opacity:1" width="3300" x="0" y="0"/>
  <line id="" style="fill:none;stroke:black;opacity:1;stroke-width:0.5;" x1="263" x2="3036" y1="292" y2="292"/>
  <text style="stroke:none;fill:black;font-family:-apple-system,&quot;SF Pro Display&quot;,&quot;SF Pro Text&quot;,Helvetica,sans-serif;font-weight:bold;" transform="matrix(1 0 0 1 263 322)">Weight/Scale Variations</text>
  <text style="stroke:none;fill:black;font-family:-apple-system,&quot;SF Pro Display&quot;,&quot;SF Pro Text&quot;,Helvetica,sans-serif;text-anchor:middle;" transform="matrix(1 0 0 1 559.711 322)">Ultralight</text>
  <text style="stroke:none;fill:black;font-family:-apple-system,&quot;SF Pro Display&quot;,&quot;SF Pro Text&quot;,Helvetica,sans-serif;text-anchor:middle;" transform="matrix(1 0 0 1 856.422 322)">Thin</text>
  <text style="stroke:none;fill:black;font-family:-apple-system,&quot;SF Pro Display&quot;,&quot;SF Pro Text&quot;,Helvetica,sans-serif;text-anchor:middle;" transform="matrix(1 0 0 1 1153.13 322)">Light</text>
  <text style="stroke:none;fill:black;font-family:-apple-system,&quot;SF Pro Display&quot;,&quot;SF Pro Text&quot;,Helvetica,sans-serif;text-anchor:middle;" transform="matrix(1 0 0 1 1449.84 322)">Regular</text>
  <text style="stroke:none;fill:black;font-family:-apple-system,&quot;SF Pro Display&quot;,&quot;SF Pro Text&quot;,Helvetica,sans-serif;text-anchor:middle;" transform="matrix(1 0 0 1 1746.56 322)">Medium</text>
  <text style="stroke:none;fill:black;font-family:-apple-system,&quot;SF Pro Display&quot;,&quot;SF Pro Text&quot;,Helvetica,sans-serif;text-anchor:middle;" transform="matrix(1 0 0 1 2043.27 322)">Semibold</text>
  <text style="stroke:none;fill:black;font-family:-apple-system,&quot;SF Pro Display&quot;,&quot;SF Pro Text&quot;,Helvetica,sans-serif;text-anchor:middle;" transform="matrix(1 0 0 1 2339.98 322)">Bold</text>
  <text style="stroke:none;fill:black;font-family:-apple-system,&quot;SF Pro Display&quot;,&quot;SF Pro Text&quot;,Helvetica,sans-serif;text-anchor:middle;" transform="matrix(1 0 0 1 2636.69 322)">Heavy</text>
  <text style="stroke:none;fill:black;font-family:-apple-system,&quot;SF Pro Display&quot;,&quot;SF Pro Text&quot;,Helvetica,sans-serif;text-anchor:middle;" transform="matrix(1 0 0 1 2933.4 322)">Black</text>
  <line id="" style="fill:none;stroke:black;opacity:1;stroke-width:0.5;" x1="263" x2="3036" y1="1903" y2="1903"/>
  <g id="" transform="matrix(1 0 0 1 263 1933)">
   <path d="M9.24805 0.830078C13.5547 0.830078 17.1387-2.74414 17.1387-7.05078C17.1387-11.3574 13.5449-14.9316 9.23828-14.9316C4.94141-14.9316 1.36719-11.3574 1.36719-7.05078C1.36719-2.74414 4.95117 0.830078 9.24805 0.830078ZM9.24805-0.654297C5.70312-0.654297 2.87109-3.49609 2.87109-7.05078C2.87109-10.6055 5.69336-13.4473 9.23828-13.4473C12.793-13.4473 15.6348-10.6055 15.6445-7.05078C15.6543-3.49609 12.8027-0.654297 9.24805-0.654297ZM6.39648-6.31836L8.50586-6.31836L8.50586-4.19922C8.50586-3.75977 8.79883-3.45703 9.22852-3.45703C9.67773-3.45703 9.9707-3.75977 9.9707-4.19922L9.9707-6.31836L12.0996-6.31836C12.5391-6.31836 12.8418-6.61133 12.8418-7.04102C12.8418-7.48047 12.5391-7.7832 12.0996-7.7832L9.9707-7.7832L9.9707-9.89258C9.9707-10.3418 9.67773-10.6445 9.22852-10.6445C8.79883-10.6445 8.50586-10.3418 8.50586-9.89258L8.50586-7.7832L6.39648-7.7832C5.94727-7.7832 5.64453-7.48047 5.64453-7.04102C5.64453-6.61133 5.94727-6.31836 6.39648-6.31836Z"/>
  </g>
  <g id="" transform="matrix(1 0 0 1 281.506 1933)">
   <path d="M11.709 2.91016C17.1582 2.91016 21.6699-1.61133 21.6699-7.05078C21.6699-12.5 17.1484-17.0117 11.6992-17.0117C6.25977-17.0117 1.74805-12.5 1.74805-7.05078C1.74805-1.61133 6.26953 2.91016 11.709 2.91016ZM11.709 1.25C7.09961 1.25 3.41797-2.44141 3.41797-7.05078C3.41797-11.6602 7.08984-15.3516 11.6992-15.3516C16.3086-15.3516 20-11.6602 20.0098-7.05078C20.0195-2.44141 16.3184 1.25 11.709 1.25ZM7.98828-6.23047L10.8789-6.23047L10.8789-3.32031C10.8789-2.83203 11.2109-2.5 11.6895-2.5C12.1777-2.5 12.5195-2.83203 12.5195-3.32031L12.5195-6.23047L15.4297-6.23047C15.918-6.23047 16.25-6.5625 16.25-7.04102C16.25-7.5293 15.918-7.87109 15.4297-7.87109L12.5195-7.87109L12.5195-10.7617C12.5195-11.2695 12.1777-11.6016 11.6895-11.6016C11.2109-11.6016 10.8789-11.2598 10.8789-10.7617L10.8789-7.87109L7.98828-7.87109C7.48047-7.87109 7.14844-7.5293 7.14844-7.04102C7.14844-6.5625 7.49023-6.23047 7.98828-6.23047Z"/>
  </g>
  <g id="" transform="matrix(1 0 0 1 304.924 1933)">
   <path d="M14.9707 5.66406C21.9336 5.66406 27.6953-0.0976562 27.6953-7.05078C27.6953-14.0137 21.9238-19.7754 14.9609-19.7754C8.00781-19.7754 2.25586-14.0137 2.25586-7.05078C2.25586-0.0976562 8.01758 5.66406 14.9707 5.66406ZM14.9707 3.84766C8.93555 3.84766 4.08203-1.01562 4.08203-7.05078C4.08203-13.0957 8.92578-17.9492 14.9609-17.9492C21.0059-17.9492 25.8594-13.0957 25.8691-7.05078C25.8789-1.01562 21.0156 3.84766 14.9707 3.84766ZM10.0586-6.14258L14.0625-6.14258L14.0625-2.12891C14.0625-1.5918 14.4336-1.2207 14.9512-1.2207C15.4883-1.2207 15.8594-1.5918 15.8594-2.12891L15.8594-6.14258L19.8828-6.14258C20.4102-6.14258 20.791-6.51367 20.791-7.03125C20.791-7.56836 20.4199-7.94922 19.8828-7.94922L15.8594-7.94922L15.8594-11.9531C15.8594-12.5098 15.4883-12.8809 14.9512-12.8809C14.4336-12.8809 14.0625-12.5 14.0625-11.9531L14.0625-7.94922L10.0586-7.94922C9.50195-7.94922 9.13086-7.56836 9.13086-7.03125C9.13086-6.51367 9.51172-6.14258 10.0586-6.14258Z"/>
  </g>
  <text style="stroke:none;fill:black;font-family:-apple-system,&quot;SF Pro Display&quot;,&quot;SF Pro Text&quot;,Helvetica,sans-serif;font-weight:bold;" transform="matrix(1 0 0 1 263 1953)">Design Variations</text>
  <text style="stroke:none;fill:black;font-family:-apple-system,&quot;SF Pro Display&quot;,&quot;SF Pro Text&quot;,Helvetica,sans-serif;" transform="matrix(1 0 0 1 263 1971)">Symbols are supported in up to nine weights and three scales.</text>
  <text style="stroke:none;fill:black;font-family:-apple-system,&quot;SF Pro Display&quot;,&quot;SF Pro Text&quot;,Helvetica,sans-serif;" transform="matrix(1 0 0 1 263 1989)">For optimal layout with text and other symbols, vertically align</text>
  <text style="stroke:none;fill:black;font-family:-apple-system,&quot;SF Pro Display&quot;,&quot;SF Pro Text&quot;,Helvetica,sans-serif;" transform="matrix(1 0 0 1 263 2007)">symbols with the adjacent text.</text>
  <line id="" style="fill:none;stroke:#00AEEF;stroke-width:0.5;opacity:1.0;" x1="776" x2="776" y1="1919" y2="1933"/>
  <g id="" transform="matrix(1 0 0 1 776 1933)">
   <path d="M3.31055 0.126953C3.82812 0.126953 4.08203-0.0683594 4.26758-0.605469L5.52734-4.0625L11.2891-4.0625L12.5488-0.605469C12.7344-0.0683594 12.9883 0.126953 13.4961 0.126953C14.0137 0.126953 14.3457-0.185547 14.3457-0.673828C14.3457-0.839844 14.3164-0.986328 14.2383-1.20117L9.6582-13.3887C9.43359-13.9941 9.0332-14.2871 8.4082-14.2871C7.80273-14.2871 7.39258-13.9941 7.17773-13.3984L2.59766-1.19141C2.51953-0.976562 2.49023-0.830078 2.49023-0.664062C2.49023-0.175781 2.80273 0.126953 3.31055 0.126953ZM6.00586-5.53711L8.37891-12.1094L8.42773-12.1094L10.8008-5.53711Z"/>
  </g>
  <line id="" style="fill:none;stroke:#00AEEF;stroke-width:0.5;opacity:1.0;" x1="792.836" x2="792.836" y1="1919" y2="1933"/>
  <text style="stroke:none;fill:black;font-family:-apple-system,&quot;SF Pro Display&quot;,&quot;SF Pro Text&quot;,Helvetica,sans-serif;font-weight:bold;" transform="matrix(1 0 0 1 776 1953)">Margins</text>
  <text style="stroke:none;fill:black;font-family:-apple-system,&quot;SF Pro Display&quot;,&quot;SF Pro Text&quot;,Helvetica,sans-serif;" transform="matrix(1 0 0 1 776 1971)">Leading and trailing margins on the left and right side of each symbol</text>
  <text style="stroke:none;fill:black;font-family:-apple-system,&quot;SF Pro Display&quot;,&quot;SF Pro Text&quot;,Helvetica,sans-serif;" transform="matrix(1 0 0 1 776 1989)">can be adjusted by modifying the x-location of the margin guidelines.</text>
  <text style="stroke:none;fill:black;font-family:-apple-system,&quot;SF Pro Display&quot;,&quot;SF Pro Text&quot;,Helvetica,sans-serif;" transform="matrix(1 0 0 1 776 2007)">Modifications are automatically applied proportionally to all</text>
  <text style="stroke:none;fill:black;font-family:-apple-system,&quot;SF Pro Display&quot;,&quot;SF Pro Text&quot;,Helvetica,sans-serif;" transform="matrix(1 0 0 1 776 2025)">scales and weights.</text>
  <g id="" transform="matrix(1 0 0 1 1289 1933)">
   <path d="M2.8418 1.86523L4.54102 3.57422C5.40039 4.44336 6.38672 4.38477 7.31445 3.35938L17.4902-7.85156C17.7539-7.76367 18.0273-7.7832 18.3398-7.8418L19.4043-8.03711L20.0684-7.36328L20.0293-6.80664C19.9902-6.30859 20.1172-5.92773 20.6055-5.44922L21.3672-4.70703C21.8457-4.22852 22.4609-4.19922 22.9297-4.66797L25.8398-7.58789C26.3086-8.05664 26.2891-8.65234 25.8105-9.13086L25.0391-9.89258C24.5605-10.3711 24.1895-10.5273 23.7109-10.4883L23.1348-10.4395L22.4902-11.0742L22.7344-12.1973C22.8613-12.7637 22.7051-13.2031 22.1191-13.7891L19.9219-15.9766C16.582-19.2969 12.1484-19.2188 9.25781-16.3281C8.83789-15.918 8.80859-15.3418 9.04297-14.9512C9.27734-14.5898 9.73633-14.3555 10.3809-14.5215C11.8457-14.8633 13.3691-14.9219 14.7949-13.9844L14.209-12.5293C14.0137-12.0508 13.9844-11.6504 14.1113-11.2891L3.04688-0.898438C2.06055 0.0195312 1.98242 0.996094 2.8418 1.86523ZM10.752-15.957C13.1836-17.7344 16.4746-17.4316 18.7012-15.2051L21.1328-12.793C21.3672-12.5586 21.4062-12.373 21.3379-12.0312L21.0156-10.5469L22.5195-9.0625L23.5059-9.12109C23.7598-9.13086 23.8379-9.11133 24.0332-8.91602L24.6094-8.33984L22.168-5.89844L21.5918-6.47461C21.3965-6.66992 21.3672-6.74805 21.377-7.01172L21.4453-7.98828L19.9512-9.47266L18.4277-9.21875C18.1055-9.15039 17.959-9.17969 17.7148-9.41406L15.7129-11.416C15.459-11.6504 15.4297-11.8164 15.5859-12.1875L16.4648-14.2773C14.9023-15.7324 12.8711-16.3574 10.8398-15.7617C10.6836-15.7227 10.625-15.8496 10.752-15.957ZM5.27344 2.30469L4.10156 1.14258C3.63281 0.683594 3.74023 0.341797 4.14062-0.0195312L14.9512-10.1953L16.416-8.71094L6.42578 2.27539C6.07422 2.67578 5.74219 2.77344 5.27344 2.30469Z"/>
  </g>
  <text style="stroke:none;fill:black;font-family:-apple-system,&quot;SF Pro Display&quot;,&quot;SF Pro Text&quot;,Helvetica,sans-serif;font-weight:bold;" transform="matrix(1 0 0 1 1289 1953)">Exporting</text>
  <text style="stroke:none;fill:black;font-family:-apple-system,&quot;SF Pro Display&quot;,&quot;SF Pro Text&quot;,Helvetica,sans-serif;" transform="matrix(1 0 0 1 1289 1971)">Symbols should be outlined when exporting to ensure the</text>
  <text style="stroke:none;fill:black;font-family:-apple-system,&quot;SF Pro Display&quot;,&quot;SF Pro Text&quot;,Helvetica,sans-serif;" transform="matrix(1 0 0 1 1289 1989)">design is preserved when submitting to Xcode.</text>
  <text id="template-version" style="stroke:none;fill:black;font-family:-apple-system,&quot;SF Pro Display&quot;,&quot;SF Pro Text&quot;,Helvetica,sans-serif;text-anchor:end;" transform="matrix(1 0 0 1 3036 1933)">Template v.2.0</text>
  <text style="stroke:none;fill:black;font-family:-apple-system,&quot;SF Pro Display&quot;,&quot;SF Pro Text&quot;,Helvetica,sans-serif;text-anchor:end;" transform="matrix(1 0 0 1 3036 1951)">Requires Xcode 12 or greater</text>
  <text style="stroke:none;fill:black;font-family:-apple-system,&quot;SF Pro Display&quot;,&quot;SF Pro Text&quot;,Helvetica,sans-serif;text-anchor:end;" transform="matrix(1 0 0 1 3036 1969)">Generated from checkmark.rectangle</text>
  <text style="stroke:none;fill:black;font-family:-apple-system,&quot;SF Pro Display&quot;,&quot;SF Pro Text&quot;,Helvetica,sans-serif;text-anchor:end;" transform="matrix(1 0 0 1 3036 1987)">Typeset at 100 points</text>
  <text style="stroke:none;fill:black;font-family:-apple-system,&quot;SF Pro Display&quot;,&quot;SF Pro Text&quot;,Helvetica,sans-serif;" transform="matrix(1 0 0 1 263 726)">Small</text>
  <text style="stroke:none;fill:black;font-family:-apple-system,&quot;SF Pro Display&quot;,&quot;SF Pro Text&quot;,Helvetica,sans-serif;" transform="matrix(1 0 0 1 263 1156)">Medium</text>
  <text style="stroke:none;fill:black;font-family:-apple-system,&quot;SF Pro Display&quot;,&quot;SF Pro Text&quot;,Helvetica,sans-serif;" transform="matrix(1 0 0 1 263 1586)">Large</text>
 </g>
 <g id="Guides">
  <g id="H-reference" style="fill:#27AAE1;stroke:none;" transform="matrix(1 0 0 1 339 696)">
   <path d="M0.976562 0L3.66211 0L12.9883-24.4629L45.752-24.4629L55.127 0L57.7637 0L30.6152-70.459L28.125-70.459ZM29.3457-67.1387L29.4434-67.1387L44.873-26.709L13.8672-26.709Z"/>
  </g>
  <line id="Baseline-S" style="fill:none;stroke:#27AAE1;opacity:1;stroke-width:0.5;" x1="263" x2="3036" y1="696" y2="696"/>
  <line id="Capline-S" style="fill:none;stroke:#27AAE1;opacity:1;stroke-width:0.5;" x1="263" x2="3036" y1="625.541" y2="625.541"/>
  <g id="H-reference" style="fill:#27AAE1;stroke:none;" transform="matrix(1 0 0 1 339 1126)">
   <path d="M0.976562 0L3.66211 0L12.9883-24.4629L45.752-24.4629L55.127 0L57.7637 0L30.6152-70.459L28.125-70.459ZM29.3457-67.1387L29.4434-67.1387L44.873-26.709L13.8672-26.709Z"/>
  </g>
  <line id="Baseline-M" style="fill:none;stroke:#27AAE1;opacity:1;stroke-width:0.5;" x1="263" x2="3036" y1="1126" y2="1126"/>
  <line id="Capline-M" style="fill:none;stroke:#27AAE1;opacity:1;stroke-width:0.5;" x1="263" x2="3036" y1="1055.54" y2="1055.54"/>
  <g id="H-reference" style="fill:#27AAE1;stroke:none;" transform="matrix(1 0 0 1 339 1556)">
   <path d="M0.976562 0L3.66211 0L12.9883-24.4629L45.752-24.4629L55.127 0L57.7637 0L30.6152-70.459L28.125-70.459ZM29.3457-67.1387L29.4434-67.1387L44.873-26.709L13.8672-26.709Z"/>
  </g>
  <line id="Baseline-L" style="fill:none;stroke:#27AAE1;opacity:1;stroke-width:0.5;" x1="263" x2="3036" y1="1556" y2="1556"/>
  <line id="Capline-L" style="fill:none;stroke:#27AAE1;opacity:1;stroke-width:0.5;" x1="263" x2="3036" y1="1485.54" y2="1485.54"/>
  <line id="left-margin" style="fill:none;stroke:#00AEEF;stroke-width:0.5;opacity:1.0;" x1="1379.82" x2="1379.82" y1="1030.79" y2="1150.12"/>
  <line id="right-margin" style="fill:none;stroke:#00AEEF;stroke-width:0.5;opacity:1.0;" x1="1519.86" x2="1519.86" y1="1030.79" y2="1150.12"/>
 </g>
 <g id="Symbols">
  <g id="Black-L" transform="matrix(1 0 0 1 2841.51 1556)">
   <path d="M39.9902 26.5137L143.799 26.5137C159.082 26.5137 167.725 17.8711 167.725 2.68555L167.725-73.0957C167.725-88.2812 159.082-96.875 143.799-96.875L39.9902-96.875C24.7559-96.875 16.0645-88.2812 16.0645-73.0957L16.0645 2.68555C16.0645 17.8711 24.7559 26.5137 39.9902 26.5137ZM42.6758 6.29883C38.4766 6.29883 36.3281 4.39453 36.3281-0.146484L36.3281-70.2148C36.3281-74.7559 38.4766-76.6602 42.6758-76.6602L141.064-76.6602C145.312-76.6602 147.461-74.7559 147.461-70.2148L147.461-0.146484C147.461 4.39453 145.312 6.29883 141.064 6.29883ZM85.4492-5.12695C88.4277-5.12695 91.1133-6.68945 92.8223-9.22852L119.775-49.6582C120.947-51.3672 121.582-53.1738 121.582-54.834C121.582-59.1309 117.773-62.207 113.574-62.207C110.791-62.207 108.594-60.7422 106.689-57.8125L85.4004-23.9746L76.3672-34.7656C74.6582-36.7676 72.8027-37.7441 70.3613-37.7441C66.1133-37.7441 62.5488-34.3262 62.5488-30.0293C62.5488-28.0273 63.1836-26.416 64.8438-24.4629L77.8809-9.08203C79.9805-6.5918 82.373-5.12695 85.4492-5.12695Z"/>
  </g>
  <g id="Heavy-L" transform="matrix(1 0 0 1 2545.23 1556)">
   <path d="M38.8184 25.4883L144.092 25.4883C158.74 25.4883 166.846 17.4316 166.846 2.88086L166.846-73.2422C166.846-87.793 158.74-95.8496 144.092-95.8496L38.8184-95.8496C24.2188-95.8496 16.0645-87.793 16.0645-73.2422L16.0645 2.88086C16.0645 17.4316 24.2188 25.4883 38.8184 25.4883ZM40.918 8.00781C36.084 8.00781 33.5938 5.71289 33.5938 0.585938L33.5938-70.9473C33.5938-76.0742 36.084-78.3691 40.918-78.3691L141.943-78.3691C146.777-78.3691 149.316-76.0742 149.316-70.9473L149.316 0.585938C149.316 5.71289 146.777 8.00781 141.943 8.00781ZM84.9609-5.17578C87.6465-5.17578 90.0391-6.5918 91.6016-8.88672L119.238-50.8301C120.264-52.4414 120.898-54.1016 120.898-55.6152C120.898-59.4727 117.529-62.207 113.77-62.207C111.328-62.207 109.326-60.8887 107.617-58.252L84.8145-22.0703L74.707-34.3262C73.0957-36.2793 71.3867-37.1582 69.1895-37.1582C65.332-37.1582 62.207-34.082 62.207-30.2734C62.207-28.418 62.8418-26.9043 64.2578-25.1953L78.0762-8.78906C79.9805-6.44531 82.1777-5.17578 84.9609-5.17578Z"/>
  </g>
  <g id="Bold-L" transform="matrix(1 0 0 1 2249.01 1556)">
   <path d="M37.5 24.3652L144.385 24.3652C158.35 24.3652 165.869 16.8945 165.869 3.07617L165.869-73.3887C165.869-87.207 158.35-94.7266 144.385-94.7266L37.5-94.7266C23.6328-94.7266 16.0645-87.2559 16.0645-73.3887L16.0645 3.07617C16.0645 16.8945 23.6328 24.3652 37.5 24.3652ZM38.9648 9.91211C33.4473 9.91211 30.5176 7.17773 30.5176 1.41602L30.5176-71.7285C30.5176-77.5391 33.4473-80.2734 38.9648-80.2734L142.969-80.2734C148.389-80.2734 151.416-77.5391 151.416-71.7285L151.416 1.41602C151.416 7.17773 148.389 9.91211 142.969 9.91211ZM84.375-5.22461C86.7188-5.22461 88.8184-6.44531 90.1855-8.54492L118.652-52.1973C119.531-53.5645 120.166-55.0781 120.166-56.4941C120.166-59.8633 117.188-62.1582 114.014-62.1582C111.914-62.1582 110.107-61.0352 108.691-58.7402L84.1797-19.9219L72.8027-33.8867C71.3379-35.7422 69.7754-36.4746 67.8223-36.4746C64.5508-36.4746 61.8164-33.8379 61.8164-30.4688C61.8164-28.9062 62.4023-27.4902 63.623-26.0254L78.2715-8.44727C80.0293-6.34766 81.9336-5.22461 84.375-5.22461Z"/>
  </g>
  <g id="Semibold-L" transform="matrix(1 0 0 1 1952.64 1556)">
   <path d="M36.6211 23.584L144.629 23.584C158.057 23.584 165.186 16.5039 165.186 3.17383L165.186-73.5352C165.186-86.8164 158.057-93.9453 144.629-93.9453L36.6211-93.9453C23.1934-93.9453 16.0645-86.8652 16.0645-73.5352L16.0645 3.17383C16.0645 16.5527 23.1934 23.584 36.6211 23.584ZM37.5977 11.2793C31.6406 11.2793 28.418 8.20312 28.418 1.95312L28.418-72.3145C28.418-78.5156 31.6406-81.5918 37.5977-81.5918L143.652-81.5918C149.512-81.5918 152.832-78.5156 152.832-72.3145L152.832 1.95312C152.832 8.20312 149.512 11.2793 143.652 11.2793ZM83.9355-5.27344C86.084-5.27344 87.9395-6.34766 89.2578-8.30078L118.213-53.125C119.043-54.3945 119.678-55.8105 119.678-57.0801C119.678-60.1074 116.992-62.1582 114.16-62.1582C112.305-62.1582 110.693-61.1328 109.375-59.1309L83.7891-18.4082L71.5332-33.5938C70.1172-35.3516 68.7012-36.0352 66.8945-36.0352C63.9648-36.0352 61.5723-33.6426 61.5723-30.6641C61.5723-29.1992 62.1094-27.8809 63.1348-26.5625L78.418-8.25195C80.0293-6.25 81.7383-5.27344 83.9355-5.27344Z"/>
  </g>
  <g id="Medium-L" transform="matrix(1 0 0 1 1656.2 1556)">
   <path d="M35.9375 22.998L144.775 22.998C157.861 22.998 164.648 16.2109 164.648 3.27148L164.648-73.6328C164.648-86.5234 157.861-93.3105 144.775-93.3105L35.9375-93.3105C22.9004-93.3105 16.0645-86.5723 16.0645-73.6328L16.0645 3.27148C16.0645 16.2598 22.9004 22.998 35.9375 22.998ZM36.5723 12.2559C30.2246 12.2559 26.8066 8.98438 26.8066 2.39258L26.8066-72.7051C26.8066-79.2969 30.2246-82.6172 36.5723-82.6172L144.141-82.6172C150.391-82.6172 153.906-79.2969 153.906-72.7051L153.906 2.39258C153.906 8.98438 150.391 12.2559 144.141 12.2559ZM83.6426-5.32227C85.6445-5.32227 87.3047-6.29883 88.5254-8.10547L117.92-53.8574C118.652-54.9805 119.287-56.2988 119.287-57.5684C119.287-60.3027 116.846-62.1582 114.258-62.1582C112.598-62.1582 111.084-61.1816 109.912-59.375L83.4473-17.2852L70.5078-33.3496C69.1895-35.0586 67.8711-35.6445 66.2109-35.6445C63.5254-35.6445 61.377-33.4961 61.377-30.7617C61.377-29.4434 61.9141-28.1738 62.793-27.002L78.5156-8.05664C80.0293-6.15234 81.5918-5.32227 83.6426-5.32227Z"/>
  </g>
  <g id="Regular-L" transform="matrix(1 0 0 1 1359.81 1556)">
   <path d="M35.0586 22.2168L144.971 22.2168C157.617 22.2168 164.014 15.8691 164.014 3.41797L164.014-73.7305C164.014-86.1816 157.617-92.5293 144.971-92.5293L35.0586-92.5293C22.4609-92.5293 16.0645-86.2305 16.0645-73.7305L16.0645 3.41797C16.0645 15.918 22.4609 22.2168 35.0586 22.2168ZM35.2539 13.5742C28.418 13.5742 24.707 9.96094 24.707 2.97852L24.707-73.291C24.707-80.2734 28.418-83.8867 35.2539-83.8867L144.824-83.8867C151.514-83.8867 155.322-80.2734 155.322-73.291L155.322 2.97852C155.322 9.96094 151.514 13.5742 144.824 13.5742ZM83.252-5.37109C85.0098-5.37109 86.4746-6.20117 87.5488-7.86133L117.529-54.7852C118.115-55.7617 118.799-56.9824 118.799-58.1543C118.799-60.5469 116.65-62.1582 114.404-62.1582C112.988-62.1582 111.621-61.2793 110.645-59.7168L83.0078-15.8203L69.2383-33.0566C68.0176-34.7168 66.7969-35.2051 65.2832-35.2051C62.9395-35.2051 61.1328-33.3008 61.1328-30.9082C61.1328-29.7363 61.6211-28.5645 62.3535-27.5391L78.6621-7.86133C80.0293-6.10352 81.4453-5.37109 83.252-5.37109Z"/>
  </g>
  <g id="Light-L" transform="matrix(1 0 0 1 1063.56 1556)">
   <path d="M34.0332 21.4355L145.117 21.4355C157.031 21.4355 163.086 15.2344 163.086 3.56445L163.086-73.8281C163.086-85.5469 157.031-91.6992 145.117-91.6992L34.0332-91.6992C22.168-91.6992 16.0645-85.6445 16.0645-73.8281L16.0645 3.56445C16.0645 15.3809 22.168 21.4355 34.0332 21.4355ZM34.1797 14.7949C26.709 14.7949 22.7051 10.8398 22.7051 3.22266L22.7051-73.4863C22.7051-81.1523 26.709-85.0586 34.1797-85.0586L144.971-85.0586C152.295-85.0586 156.494-81.1523 156.494-73.4863L156.494 3.22266C156.494 10.8398 152.295 14.7949 144.971 14.7949ZM82.8613-5.37109C84.2285-5.37109 85.3027-6.00586 86.1816-7.22656L117.676-56.2988C118.115-57.0801 118.555-58.0078 118.555-58.8867C118.555-60.6445 116.943-61.9629 115.234-61.9629C114.16-61.9629 113.086-61.2793 112.305-60.1074L82.666-13.5254L67.0898-32.3242C66.1621-33.5449 65.1855-33.9844 64.0625-33.9844C62.2559-33.9844 60.8398-32.5684 60.8398-30.6641C60.8398-29.7852 61.2305-28.8574 61.8164-28.0273L79.3945-7.22656C80.4199-5.9082 81.4453-5.37109 82.8613-5.37109Z"/>
  </g>
  <g id="Thin-L" transform="matrix(1 0 0 1 767.433 1556)">
   <path d="M32.666 20.3613L145.312 20.3613C156.201 20.3613 161.914 14.4531 161.914 3.75977L161.914-73.9746C161.914-84.7168 156.201-90.5762 145.312-90.5762L32.666-90.5762C21.7773-90.5762 16.0645-84.8633 16.0645-73.9746L16.0645 3.75977C16.0645 14.6484 21.7773 20.3613 32.666 20.3613ZM32.8125 16.4062C24.4141 16.4062 19.9707 12.0117 19.9707 3.56445L19.9707-73.7793C19.9707-82.2754 24.4141-86.6699 32.8125-86.6699L145.166-86.6699C153.32-86.6699 158.008-82.2754 158.008-73.7793L158.008 3.56445C158.008 12.0117 153.32 16.4062 145.166 16.4062ZM82.3242-5.37109C83.1543-5.37109 83.7402-5.76172 84.3262-6.39648L117.871-58.3496C118.066-58.7891 118.311-59.375 118.311-59.8145C118.311-60.791 117.334-61.7188 116.309-61.7188C115.674-61.7188 114.99-61.2305 114.502-60.6445L82.2266-10.498L64.209-31.3965C63.7207-32.0312 63.1348-32.3242 62.4023-32.3242C61.377-32.3242 60.4492-31.543 60.4492-30.3711C60.4492-29.7852 60.6934-29.1992 61.084-28.6621L80.3223-6.39648C80.957-5.66406 81.4941-5.37109 82.3242-5.37109Z"/>
  </g>
  <g id="Ultralight-L" transform="matrix(1 0 0 1 471.015 1556)">
   <path d="M31.9824 19.7754L145.41 19.7754C155.811 19.7754 161.328 14.0625 161.328 3.85742L161.328-74.0723C161.328-84.2773 155.811-89.9902 145.41-89.9902L31.9824-89.9902C21.582-89.9902 16.0645-84.4727 16.0645-74.0723L16.0645 3.85742C16.0645 14.2578 21.582 19.7754 31.9824 19.7754ZM32.1289 17.2363C23.1934 17.2363 18.6035 12.6465 18.6035 3.75977L18.6035-73.9258C18.6035-82.8125 23.1934-87.4512 32.1289-87.4512L145.264-87.4512C153.857-87.4512 158.789-82.8125 158.789-73.9258L158.789 3.75977C158.789 12.6465 153.857 17.2363 145.264 17.2363ZM82.0801-5.37109C82.5684-5.37109 82.959-5.61523 83.3496-5.95703L117.969-59.4238C118.066-59.668 118.164-60.0586 118.164-60.2539C118.164-60.8887 117.529-61.5723 116.895-61.5723C116.455-61.5723 115.967-61.2305 115.625-60.8887L82.0312-8.93555L62.7441-30.957C62.4512-31.2988 62.0605-31.4941 61.5234-31.4941C60.8887-31.4941 60.2539-31.0059 60.2539-30.2246C60.2539-29.7852 60.4492-29.3945 60.6934-29.0039L80.8105-5.95703C81.2012-5.51758 81.4941-5.37109 82.0801-5.37109Z"/>
  </g>
  <g id="Black-M" transform="matrix(1 0 0 1 2861.84 1126)">
   <path d="M31.9824 13.5742L111.133 13.5742C123.389 13.5742 130.664 6.29883 130.664-5.95703L130.664-64.4043C130.664-76.6602 123.389-83.9355 111.133-83.9355L31.9824-83.9355C19.7266-83.9355 12.4512-76.6602 12.4512-64.4043L12.4512-5.95703C12.4512 6.29883 19.7266 13.5742 31.9824 13.5742ZM34.9121-4.73633C32.0801-4.73633 30.7617-5.81055 30.7617-8.88672L30.7617-61.4746C30.7617-64.5508 32.0801-65.6738 34.9121-65.6738L108.203-65.6738C111.035-65.6738 112.402-64.5508 112.402-61.4746L112.402-8.88672C112.402-5.81055 111.035-4.73633 108.203-4.73633ZM66.748-11.8164C69.1895-11.8164 71.4355-13.1348 72.9004-15.1855L93.6523-45.6055C94.6289-47.0215 95.0195-48.4863 95.0195-49.707C95.0195-53.3691 91.7969-56.0547 88.2324-56.0547C85.791-56.0547 83.9355-54.834 82.3242-52.2949L66.748-27.8809L60.3027-35.0098C58.9844-36.4258 57.5195-37.3535 55.5176-37.3535C51.8555-37.3535 48.7793-34.4238 48.7793-30.8105C48.7793-29.1016 49.2676-27.8809 50.7324-26.1719L60.498-14.9902C62.1582-13.0859 64.1602-11.8164 66.748-11.8164Z"/>
  </g>
  <g id="Heavy-M" transform="matrix(1 0 0 1 2565.5 1126)">
   <path d="M31.0059 12.6465L111.426 12.6465C123.193 12.6465 129.932 5.9082 129.932-5.81055L129.932-64.5508C129.932-76.2695 123.193-83.0566 111.426-83.0566L31.0059-83.0566C19.2383-83.0566 12.4512-76.3184 12.4512-64.5508L12.4512-5.81055C12.4512 5.9082 19.2383 12.6465 31.0059 12.6465ZM33.252-3.17383C29.9316-3.17383 28.2715-4.63867 28.2715-8.1543L28.2715-62.207C28.2715-65.7715 29.9316-67.2363 33.252-67.2363L109.131-67.2363C112.451-67.2363 114.111-65.7715 114.111-62.207L114.111-8.1543C114.111-4.63867 112.451-3.17383 109.131-3.17383ZM66.2598-11.8652C68.5059-11.8652 70.5566-13.0859 71.875-14.9902L93.0176-46.5332C93.8965-47.8516 94.3359-49.2188 94.3359-50.3906C94.3359-53.7109 91.4551-56.1035 88.2324-56.1035C86.0352-56.1035 84.375-54.9805 82.9102-52.6855L66.2109-26.3672L59.0332-34.7656C57.7637-36.2305 56.3477-37.0117 54.4922-37.0117C51.2207-37.0117 48.4863-34.375 48.4863-31.1035C48.4863-29.541 48.9746-28.3691 50.2441-26.8555L60.498-14.8438C62.1094-12.9883 63.916-11.8652 66.2598-11.8652Z"/>
  </g>
  <g id="Bold-M" transform="matrix(1 0 0 1 2269.18 1126)">
   <path d="M29.8828 11.6699L111.719 11.6699C122.949 11.6699 129.15 5.46875 129.15-5.66406L129.15-64.6973C129.15-75.8789 122.949-82.0312 111.719-82.0312L29.8828-82.0312C18.6523-82.0312 12.4512-75.8789 12.4512-64.6973L12.4512-5.66406C12.4512 5.51758 18.6523 11.6699 29.8828 11.6699ZM31.3965-1.41602C27.5391-1.41602 25.5371-3.27148 25.5371-7.32422L25.5371-63.0371C25.5371-67.1387 27.5391-68.9453 31.3965-68.9453L110.205-68.9453C114.014-68.9453 116.064-67.1387 116.064-63.0371L116.064-7.32422C116.064-3.27148 114.014-1.41602 110.205-1.41602ZM65.7227-11.9629C67.7734-11.9629 69.5801-12.9883 70.8008-14.7949L92.334-47.5586C93.1152-48.7305 93.6035-50 93.6035-51.1719C93.6035-54.0527 91.0156-56.1523 88.1836-56.1523C86.3281-56.1523 84.8145-55.127 83.5449-53.125L65.625-24.707L57.6172-34.4727C56.3965-35.9863 55.0781-36.6211 53.418-36.6211C50.5371-36.6211 48.1445-34.3262 48.1445-31.3965C48.1445-30.0293 48.6328-28.9062 49.707-27.5879L60.5469-14.6973C62.0117-12.8906 63.623-11.9629 65.7227-11.9629Z"/>
  </g>
  <g id="Semibold-M" transform="matrix(1 0 0 1 1972.76 1126)">
   <path d="M29.1016 10.9863L111.914 10.9863C122.803 10.9863 128.564 5.17578 128.564-5.56641L128.564-64.8438C128.564-75.5859 122.803-81.3477 111.914-81.3477L29.1016-81.3477C18.2617-81.3477 12.4512-75.5859 12.4512-64.8438L12.4512-5.56641C12.4512 5.22461 18.2617 10.9863 29.1016 10.9863ZM30.127-0.195312C25.8789-0.195312 23.6328-2.34375 23.6328-6.78711L23.6328-63.623C23.6328-68.0664 25.8789-70.166 30.127-70.166L110.889-70.166C115.088-70.166 117.383-68.0664 117.383-63.623L117.383-6.78711C117.383-2.34375 115.088-0.195312 110.889-0.195312ZM65.3809-12.0117C67.2363-12.0117 68.8965-12.9395 70.0195-14.6484L91.8457-48.2422C92.5293-49.3652 93.0664-50.5371 93.0664-51.709C93.0664-54.3457 90.7227-56.1523 88.1836-56.1523C86.5723-56.1523 85.1562-55.2246 84.0332-53.4668L65.2344-23.5352L56.6406-34.2773C55.4199-35.791 54.1992-36.377 52.6367-36.377C50.0488-36.377 47.9492-34.2773 47.9492-31.6406C47.9492-30.3711 48.3887-29.248 49.3164-28.125L60.5469-14.5508C61.9141-12.8418 63.4277-12.0117 65.3809-12.0117Z"/>
  </g>
  <g id="Medium-M" transform="matrix(1 0 0 1 1676.24 1126)">
   <path d="M28.5156 10.4492L112.061 10.4492C122.656 10.4492 128.174 4.98047 128.174-5.46875L128.174-64.8926C128.174-75.3418 122.656-80.8105 112.061-80.8105L28.5156-80.8105C17.9688-80.8105 12.4512-75.3906 12.4512-64.8926L12.4512-5.46875C12.4512 4.98047 17.9688 10.4492 28.5156 10.4492ZM29.1504 0.732422C24.6582 0.732422 22.168-1.61133 22.168-6.34766L22.168-64.0137C22.168-68.75 24.6582-71.0938 29.1504-71.0938L111.426-71.0938C115.918-71.0938 118.408-68.75 118.408-64.0137L118.408-6.34766C118.408-1.61133 115.918 0.732422 111.426 0.732422ZM65.0879-12.0117C66.8457-12.0117 68.3594-12.8906 69.4336-14.502L91.4551-48.7793C92.0898-49.8047 92.6758-50.9766 92.6758-52.0996C92.6758-54.541 90.5273-56.1523 88.1836-56.1523C86.7188-56.1523 85.4004-55.3223 84.375-53.7109L64.9414-22.6562L55.8594-34.1309C54.6875-35.6445 53.5156-36.1816 52.0996-36.1816C49.6582-36.1816 47.7539-34.2285 47.7539-31.7871C47.7539-30.6152 48.1934-29.541 49.0234-28.5156L60.5469-14.4531C61.8652-12.793 63.2812-12.0117 65.0879-12.0117Z"/>
  </g>
  <g id="Regular-M" transform="matrix(1 0 0 1 1379.82 1126)">
   <path d="M27.7832 9.76562L112.256 9.76562C122.51 9.76562 127.588 4.6875 127.588-5.37109L127.588-64.9902C127.588-75.0488 122.51-80.127 112.256-80.127L27.7832-80.127C17.5781-80.127 12.4512-75.0977 12.4512-64.9902L12.4512-5.37109C12.4512 4.73633 17.5781 9.76562 27.7832 9.76562ZM27.8809 1.9043C22.998 1.9043 20.3125-0.683594 20.3125-5.76172L20.3125-64.5996C20.3125-69.6777 22.998-72.2656 27.8809-72.2656L112.158-72.2656C116.992-72.2656 119.727-69.6777 119.727-64.5996L119.727-5.76172C119.727-0.683594 116.992 1.9043 112.158 1.9043ZM64.7461-12.0605C66.3574-12.0605 67.7246-12.8418 68.6523-14.3555L91.0156-49.4629C91.5527-50.4395 92.1875-51.5137 92.1875-52.5879C92.1875-54.7852 90.2344-56.2012 88.1836-56.2012C86.9141-56.2012 85.6934-55.4199 84.8145-54.0039L64.5508-21.4844L54.8828-33.9355C53.7598-35.498 52.6367-35.8887 51.3184-35.8887C49.1699-35.8887 47.5586-34.1797 47.5586-32.0312C47.5586-30.957 47.9492-29.9316 48.6816-29.0039L60.5469-14.3555C61.8164-12.7441 63.0859-12.0605 64.7461-12.0605Z"/>
  </g>
  <g id="Light-M" transform="matrix(1 0 0 1 1083.5 1126)">
   <path d="M26.8555 9.0332L112.402 9.0332C121.973 9.0332 126.807 4.15039 126.807-5.22461L126.807-65.0879C126.807-74.5117 121.973-79.3945 112.402-79.3945L26.8555-79.3945C17.334-79.3945 12.4512-74.5605 12.4512-65.0879L12.4512-5.22461C12.4512 4.19922 17.334 9.0332 26.8555 9.0332ZM26.9531 2.97852C21.4844 2.97852 18.5059 0.0976562 18.5059-5.56641L18.5059-64.7949C18.5059-70.4102 21.4844-73.3398 26.9531-73.3398L112.305-73.3398C117.676-73.3398 120.752-70.4102 120.752-64.7949L120.752-5.56641C120.752 0.0976562 117.676 2.97852 112.305 2.97852ZM64.4043-12.0605C65.625-12.0605 66.6504-12.6953 67.4316-13.8184L91.1133-50.8789C91.5527-51.5625 91.9922-52.4414 91.9922-53.2227C91.9922-54.8828 90.4785-56.0059 88.916-56.0059C87.9395-56.0059 87.0117-55.4199 86.2793-54.3457L64.209-19.4336L52.9785-33.3008C52.0996-34.4727 51.2695-34.8145 50.1953-34.8145C48.584-34.8145 47.2656-33.4961 47.2656-31.8359C47.2656-31.0059 47.6074-30.1758 48.1445-29.4434L61.2305-13.8184C62.1582-12.5977 63.1348-12.0605 64.4043-12.0605Z"/>
  </g>
  <g id="Thin-M" transform="matrix(1 0 0 1 787.33 1126)">
   <path d="M25.6348 8.05664L112.598 8.05664C121.24 8.05664 125.732 3.4668 125.732-5.0293L125.732-65.2344C125.732-73.7305 121.24-78.3691 112.598-78.3691L25.6348-78.3691C16.9922-78.3691 12.4512-73.877 12.4512-65.2344L12.4512-5.0293C12.4512 3.56445 16.9922 8.05664 25.6348 8.05664ZM25.7324 4.44336C19.3848 4.44336 16.0645 1.12305 16.0645-5.22461L16.0645-65.0391C16.0645-71.4355 19.3848-74.7559 25.7324-74.7559L112.451-74.7559C118.604-74.7559 122.119-71.4355 122.119-65.0391L122.119-5.22461C122.119 1.12305 118.604 4.44336 112.451 4.44336ZM63.916-12.0605C64.6484-12.0605 65.2344-12.4512 65.7227-13.0371L91.3086-52.7344C91.5039-53.125 91.748-53.6621 91.748-54.0527C91.748-55.0293 90.8691-55.8105 89.9414-55.8105C89.3066-55.8105 88.7207-55.4199 88.2812-54.7852L63.8184-16.6992L50.3906-32.4707C49.9023-33.1055 49.3652-33.3496 48.7305-33.3496C47.7539-33.3496 46.9238-32.5684 46.9238-31.543C46.9238-31.0059 47.168-30.5176 47.5098-30.0293L62.0605-13.0371C62.6465-12.3535 63.1348-12.0605 63.916-12.0605Z"/>
  </g>
  <g id="Ultralight-M" transform="matrix(1 0 0 1 490.888 1126)">
   <path d="M25 7.56836L112.695 7.56836C120.85 7.56836 125.195 3.125 125.195-4.98047L125.195-65.2832C125.195-73.3887 120.85-77.832 112.695-77.832L25-77.832C16.7969-77.832 12.4512-73.4863 12.4512-65.2832L12.4512-4.98047C12.4512 3.22266 16.7969 7.56836 25 7.56836ZM25.0977 5.17578C18.3594 5.17578 14.8438 1.66016 14.8438-5.07812L14.8438-65.1855C14.8438-71.9727 18.3594-75.4395 25.0977-75.4395L112.549-75.4395C119.043-75.4395 122.803-71.9727 122.803-65.1855L122.803-5.07812C122.803 1.66016 119.043 5.17578 112.549 5.17578ZM63.6719-12.0605C64.1602-12.0605 64.5508-12.3047 64.8926-12.6465L91.4062-53.6621C91.5039-53.9062 91.6016-54.248 91.6016-54.4922C91.6016-55.0781 91.0156-55.7129 90.4297-55.7129C89.9902-55.7129 89.5996-55.3711 89.3066-55.0293L63.623-15.332L49.0723-32.0312C48.7793-32.4219 48.4375-32.5684 47.9492-32.5684C47.3633-32.5684 46.7285-32.1289 46.7285-31.3965C46.7285-31.0059 46.9238-30.6641 47.168-30.3223L62.5-12.6465C62.8418-12.2559 63.1348-12.0605 63.6719-12.0605Z"/>
  </g>
  <g id="Black-S" transform="matrix(1 0 0 1 2877.35 696)">
   <path d="M25 2.92969L87.1094 2.92969C96.6797 2.92969 102.344-2.73438 102.344-12.3047L102.344-58.1055C102.344-67.6758 96.6797-73.3398 87.1094-73.3398L25-73.3398C15.4297-73.3398 9.76562-67.6758 9.76562-58.1055L9.76562-12.3047C9.76562-2.73438 15.4297 2.92969 25 2.92969ZM27.2461-11.2305C25-11.2305 23.9258-12.1094 23.9258-14.5508L23.9258-55.8594C23.9258-58.3008 25-59.1797 27.2461-59.1797L84.8633-59.1797C87.1094-59.1797 88.1836-58.3008 88.1836-55.8594L88.1836-14.5508C88.1836-12.1094 87.1094-11.2305 84.8633-11.2305ZM52.2461-16.8945C54.1504-16.8945 55.9082-17.9199 57.0312-19.5312L73.291-43.4082C74.0723-44.5312 74.3652-45.6543 74.3652-46.6309C74.3652-49.4629 71.875-51.5625 69.0918-51.5625C67.1875-51.5625 65.7715-50.5859 64.502-48.6328L52.2461-29.3945L47.168-35.0586C46.1426-36.1816 44.9707-36.8652 43.4082-36.8652C40.5762-36.8652 38.1836-34.6191 38.1836-31.7871C38.1836-30.4688 38.5742-29.4922 39.6973-28.1738L47.3633-19.3848C48.6816-17.8711 50.2441-16.8945 52.2461-16.8945Z"/>
  </g>
  <g id="Heavy-S" transform="matrix(1 0 0 1 2580.88 696)">
   <path d="M24.3652 2.34375L87.3047 2.34375C96.582 2.34375 101.855-2.97852 101.855-12.207L101.855-58.2031C101.855-67.4316 96.582-72.7539 87.3047-72.7539L24.3652-72.7539C15.0879-72.7539 9.76562-67.4316 9.76562-58.2031L9.76562-12.207C9.76562-2.97852 15.0879 2.34375 24.3652 2.34375ZM26.0742-10.1562C23.5352-10.1562 22.2656-11.2793 22.2656-14.0137L22.2656-56.3965C22.2656-59.1309 23.5352-60.2539 26.0742-60.2539L85.5469-60.2539C88.0859-60.2539 89.4043-59.1309 89.4043-56.3965L89.4043-14.0137C89.4043-11.2793 88.0859-10.1562 85.5469-10.1562ZM51.9043-16.9434C53.7109-16.9434 55.3711-17.8711 56.3965-19.4336L72.8027-43.9453C73.5352-45.0195 73.877-46.0938 73.877-47.0703C73.877-49.707 71.582-51.6113 68.9941-51.6113C67.2852-51.6113 65.9668-50.6836 64.7949-48.877L51.8555-28.4668L46.3867-34.9121C45.3613-36.1328 44.2383-36.7188 42.7734-36.7188C40.1855-36.7188 37.9883-34.668 37.9883-32.0312C37.9883-30.8105 38.3789-29.834 39.3555-28.6621L47.3145-19.3359C48.584-17.8223 50.0488-16.9434 51.9043-16.9434Z"/>
  </g>
  <g id="Bold-S" transform="matrix(1 0 0 1 2284.41 696)">
   <path d="M23.6328 1.66016L87.5 1.66016C96.4844 1.66016 101.367-3.22266 101.367-12.1094L101.367-58.3008C101.367-67.1875 96.4844-72.0703 87.5-72.0703L23.6328-72.0703C14.6973-72.0703 9.76562-67.1875 9.76562-58.3008L9.76562-12.1094C9.76562-3.22266 14.6973 1.66016 23.6328 1.66016ZM24.8047-8.93555C21.9238-8.93555 20.3613-10.3516 20.3613-13.4277L20.3613-56.9824C20.3613-60.0586 21.9238-61.4746 24.8047-61.4746L86.3281-61.4746C89.209-61.4746 90.7715-60.0586 90.7715-56.9824L90.7715-13.4277C90.7715-10.3516 89.209-8.93555 86.3281-8.93555ZM51.5625-16.9922C53.2227-16.9922 54.7363-17.8711 55.7129-19.3359L72.2656-44.5801C72.9004-45.5566 73.3398-46.582 73.3398-47.6074C73.3398-50 71.1914-51.6602 68.8965-51.6602C67.3828-51.6602 66.1621-50.8301 65.0879-49.2188L51.4648-27.4414L45.5566-34.8145C44.5312-36.0352 43.457-36.5723 42.0898-36.5723C39.6973-36.5723 37.793-34.668 37.793-32.3242C37.793-31.2012 38.1348-30.2246 39.0137-29.1504L47.2656-19.2871C48.4863-17.7734 49.8535-16.9922 51.5625-16.9922Z"/>
  </g>
  <g id="Semibold-S" transform="matrix(1 0 0 1 1987.9 696)">
   <path d="M23.0957 1.17188L87.6465 1.17188C96.3867 1.17188 100.977-3.36914 100.977-12.0117L100.977-58.3984C100.977-67.041 96.3867-71.582 87.6465-71.582L23.0957-71.582C14.4043-71.582 9.76562-67.041 9.76562-58.3984L9.76562-12.0117C9.76562-3.36914 14.4043 1.17188 23.0957 1.17188ZM23.877-8.10547C20.752-8.10547 19.0918-9.7168 19.0918-12.9883L19.0918-57.4219C19.0918-60.6934 20.752-62.3047 23.877-62.3047L86.8652-62.3047C89.9902-62.3047 91.6992-60.6934 91.6992-57.4219L91.6992-12.9883C91.6992-9.7168 89.9902-8.10547 86.8652-8.10547ZM51.3184-17.041C52.9297-17.041 54.2969-17.8223 55.2246-19.2871L71.875-44.9707C72.4609-45.8984 72.9492-46.9727 72.9492-47.9492C72.9492-50.1953 70.9473-51.6602 68.8477-51.6602C67.4805-51.6602 66.2598-50.9277 65.332-49.4141L51.1719-26.709L44.9707-34.668C43.9453-35.9863 42.8711-36.4746 41.6016-36.4746C39.3555-36.4746 37.6465-34.7168 37.6465-32.5195C37.6465-31.4453 37.9883-30.4688 38.7695-29.541L47.2168-19.2383C48.3887-17.7734 49.6582-17.041 51.3184-17.041Z"/>
  </g>
  <g id="Medium-S" transform="matrix(1 0 0 1 1691.31 696)">
   <path d="M22.7051 0.830078L87.7441 0.830078C96.3379 0.830078 100.732-3.51562 100.732-11.9629L100.732-58.4473C100.732-66.8945 96.3379-71.2402 87.7441-71.2402L22.7051-71.2402C14.209-71.2402 9.76562-66.8945 9.76562-58.4473L9.76562-11.9629C9.76562-3.51562 14.209 0.830078 22.7051 0.830078ZM23.1934-7.4707C19.9219-7.4707 18.0664-9.22852 18.0664-12.6953L18.0664-57.7148C18.0664-61.1816 19.9219-62.9395 23.1934-62.9395L87.3047-62.9395C90.5762-62.9395 92.3828-61.1816 92.3828-57.7148L92.3828-12.6953C92.3828-9.22852 90.5762-7.4707 87.3047-7.4707ZM51.123-17.041C52.6367-17.041 53.9551-17.8223 54.8828-19.2383L71.582-45.3125C72.168-46.1914 72.6562-47.2168 72.6562-48.1934C72.6562-50.293 70.8008-51.709 68.7988-51.709C67.5293-51.709 66.3574-50.9766 65.4785-49.5605L50.9766-26.1719L44.5312-34.6191C43.5059-35.9863 42.4805-36.4258 41.2109-36.4258C39.1602-36.4258 37.5-34.7168 37.5-32.6172C37.5-31.6406 37.8906-30.6641 38.5742-29.7852L47.168-19.1895C48.3398-17.7246 49.5605-17.041 51.123-17.041Z"/>
  </g>
  <g id="Regular-S" transform="matrix(1 0 0 1 1394.79 696)">
   <path d="M22.2168 0.390625L87.8906 0.390625C96.2402 0.390625 100.342-3.71094 100.342-11.9141L100.342-58.4961C100.342-66.6992 96.2402-70.8008 87.8906-70.8008L22.2168-70.8008C13.916-70.8008 9.76562-66.6992 9.76562-58.4961L9.76562-11.9141C9.76562-3.71094 13.916 0.390625 22.2168 0.390625ZM22.3145-6.68945C18.7988-6.68945 16.7969-8.54492 16.7969-12.2559L16.7969-58.1543C16.7969-61.8164 18.7988-63.7207 22.3145-63.7207L87.793-63.7207C91.3086-63.7207 93.3105-61.8164 93.3105-58.1543L93.3105-12.2559C93.3105-8.54492 91.3086-6.68945 87.793-6.68945ZM50.8789-17.0898C52.3438-17.0898 53.5645-17.7734 54.3945-19.1406L71.1914-45.7031C71.7285-46.582 72.2656-47.5586 72.2656-48.5352C72.2656-50.4883 70.5566-51.709 68.7012-51.709C67.5781-51.709 66.5039-51.0742 65.7227-49.7559L50.6836-25.4395L43.9453-34.5215C42.9199-35.9375 41.9434-36.2793 40.7227-36.2793C38.8184-36.2793 37.3535-34.7656 37.3535-32.8125C37.3535-31.8848 37.7441-30.957 38.3301-30.127L47.1191-19.1406C48.2422-17.6758 49.4141-17.0898 50.8789-17.0898Z"/>
  </g>
  <g id="Light-S" transform="matrix(1 0 0 1 1098.42 696)">
   <path d="M21.3867-0.292969L88.0371-0.292969C95.752-0.292969 99.6582-4.15039 99.6582-11.7676L99.6582-58.5938C99.6582-66.2109 95.752-70.1172 88.0371-70.1172L21.3867-70.1172C13.6719-70.1172 9.76562-66.2598 9.76562-58.5938L9.76562-11.7676C9.76562-4.15039 13.6719-0.292969 21.3867-0.292969ZM21.4844-5.71289C17.4316-5.71289 15.1855-7.86133 15.1855-12.0605L15.1855-58.3008C15.1855-62.5 17.4316-64.6973 21.4844-64.6973L87.9395-64.6973C91.9434-64.6973 94.2383-62.5 94.2383-58.3008L94.2383-12.0605C94.2383-7.86133 91.9434-5.71289 87.9395-5.71289ZM50.5859-17.0898C51.6602-17.0898 52.5879-17.627 53.2715-18.6523L71.3379-46.9727C71.7285-47.6074 72.1191-48.3398 72.1191-49.0723C72.1191-50.5859 70.8008-51.5625 69.3848-51.5625C68.5059-51.5625 67.6758-51.0742 67.041-50.0488L50.4395-23.6328L42.2363-33.9844C41.4551-35.0098 40.6738-35.3027 39.7461-35.3027C38.2812-35.3027 37.1094-34.1309 37.1094-32.6172C37.1094-31.8848 37.4512-31.1523 37.8906-30.5176L47.7051-18.6523C48.5352-17.5293 49.4141-17.0898 50.5859-17.0898Z"/>
  </g>
  <g id="Thin-S" transform="matrix(1 0 0 1 802.174 696)">
   <path d="M20.3125-1.12305L88.1836-1.12305C95.1172-1.12305 98.7305-4.78516 98.7305-11.6211L98.7305-58.6914C98.7305-65.5762 95.1172-69.2383 88.1836-69.2383L20.3125-69.2383C13.3789-69.2383 9.76562-65.625 9.76562-58.6914L9.76562-11.6211C9.76562-4.6875 13.3789-1.12305 20.3125-1.12305ZM20.4102-4.44336C15.625-4.44336 13.0859-6.93359 13.0859-11.8164L13.0859-58.5449C13.0859-63.3789 15.625-65.918 20.4102-65.918L88.0859-65.918C92.7246-65.918 95.4102-63.3789 95.4102-58.5449L95.4102-11.8164C95.4102-6.93359 92.7246-4.44336 88.0859-4.44336ZM50.1465-17.0898C50.8301-17.0898 51.3672-17.4316 51.8066-18.0176L71.4844-48.584C71.6797-48.9258 71.9238-49.4141 71.9238-49.8047C71.9238-50.6836 71.0938-51.416 70.2637-51.416C69.6777-51.416 69.1406-51.0254 68.75-50.4883L50.0977-21.2402L39.9414-33.252C39.502-33.8379 39.0137-34.0332 38.4277-34.0332C37.5488-34.0332 36.8164-33.3496 36.8164-32.373C36.8164-31.9336 37.0117-31.4453 37.3535-31.0059L48.4375-18.0176C48.9746-17.3828 49.4629-17.0898 50.1465-17.0898Z"/>
  </g>
  <g id="Ultralight-S" transform="matrix(1 0 0 1 505.707 696)">
   <path d="M19.7754-1.5625L88.2812-1.5625C94.8242-1.5625 98.2422-5.12695 98.2422-11.5234L98.2422-58.7891C98.2422-65.2344 94.8242-68.75 88.2812-68.75L19.7754-68.75C13.2324-68.75 9.76562-65.2832 9.76562-58.7891L9.76562-11.5234C9.76562-5.0293 13.2324-1.5625 19.7754-1.5625ZM19.873-3.75977C14.6484-3.75977 11.9629-6.44531 11.9629-11.6699L11.9629-58.6426C11.9629-63.8672 14.6484-66.5527 19.873-66.5527L88.1836-66.5527C93.1641-66.5527 96.0449-63.8672 96.0449-58.6426L96.0449-11.6699C96.0449-6.44531 93.1641-3.75977 88.1836-3.75977ZM49.9512-17.0898C50.3906-17.0898 50.7324-17.334 51.0742-17.6758L71.582-49.4141C71.6797-49.6582 71.8262-49.9512 71.8262-50.1953C71.8262-50.7812 71.2402-51.2695 70.7031-51.2695C70.3125-51.2695 69.9219-51.0254 69.6777-50.6836L49.9023-20.0195L38.7695-32.8613C38.5254-33.2031 38.1836-33.3496 37.7441-33.3496C37.207-33.3496 36.6699-32.9102 36.6699-32.2754C36.6699-31.9336 36.8164-31.5918 37.0117-31.2988L48.8281-17.6758C49.1699-17.2363 49.4629-17.0898 49.9512-17.0898Z"/>
  </g>
 </g>
</svg>
