<?xml version="1.0" encoding="UTF-8"?>
<!--Generator: Apple Native CoreSVG 149-->
<!DOCTYPE svg
PUBLIC "-//W3C//DTD SVG 1.1//EN"
       "http://www.w3.org/Graphics/SVG/1.1/DTD/svg11.dtd">
<svg version="1.1" xmlns="http://www.w3.org/2000/svg" xmlns:xlink="http://www.w3.org/1999/xlink" width="3300" height="2200">
 <!--glyph: "uni1006FA.medium", point size: 100.000000, font version: "Version 16.0d18e1", template writer version: "8"-->
 <g id="Notes">
  <rect height="2200" id="artboard" style="fill:white;opacity:1" width="3300" x="0" y="0"/>
  <line id="" style="fill:none;stroke:black;opacity:1;stroke-width:0.5;" x1="263" x2="3036" y1="292" y2="292"/>
  <text style="stroke:none;fill:black;font-family:-apple-system,&quot;SF Pro Display&quot;,&quot;SF Pro Text&quot;,Helvetica,sans-serif;font-weight:bold;" transform="matrix(1 0 0 1 263 322)">Weight/Scale Variations</text>
  <text style="stroke:none;fill:black;font-family:-apple-system,&quot;SF Pro Display&quot;,&quot;SF Pro Text&quot;,Helvetica,sans-serif;text-anchor:middle;" transform="matrix(1 0 0 1 559.711 322)">Ultralight</text>
  <text style="stroke:none;fill:black;font-family:-apple-system,&quot;SF Pro Display&quot;,&quot;SF Pro Text&quot;,Helvetica,sans-serif;text-anchor:middle;" transform="matrix(1 0 0 1 856.422 322)">Thin</text>
  <text style="stroke:none;fill:black;font-family:-apple-system,&quot;SF Pro Display&quot;,&quot;SF Pro Text&quot;,Helvetica,sans-serif;text-anchor:middle;" transform="matrix(1 0 0 1 1153.13 322)">Light</text>
  <text style="stroke:none;fill:black;font-family:-apple-system,&quot;SF Pro Display&quot;,&quot;SF Pro Text&quot;,Helvetica,sans-serif;text-anchor:middle;" transform="matrix(1 0 0 1 1449.84 322)">Regular</text>
  <text style="stroke:none;fill:black;font-family:-apple-system,&quot;SF Pro Display&quot;,&quot;SF Pro Text&quot;,Helvetica,sans-serif;text-anchor:middle;" transform="matrix(1 0 0 1 1746.56 322)">Medium</text>
  <text style="stroke:none;fill:black;font-family:-apple-system,&quot;SF Pro Display&quot;,&quot;SF Pro Text&quot;,Helvetica,sans-serif;text-anchor:middle;" transform="matrix(1 0 0 1 2043.27 322)">Semibold</text>
  <text style="stroke:none;fill:black;font-family:-apple-system,&quot;SF Pro Display&quot;,&quot;SF Pro Text&quot;,Helvetica,sans-serif;text-anchor:middle;" transform="matrix(1 0 0 1 2339.98 322)">Bold</text>
  <text style="stroke:none;fill:black;font-family:-apple-system,&quot;SF Pro Display&quot;,&quot;SF Pro Text&quot;,Helvetica,sans-serif;text-anchor:middle;" transform="matrix(1 0 0 1 2636.69 322)">Heavy</text>
  <text style="stroke:none;fill:black;font-family:-apple-system,&quot;SF Pro Display&quot;,&quot;SF Pro Text&quot;,Helvetica,sans-serif;text-anchor:middle;" transform="matrix(1 0 0 1 2933.4 322)">Black</text>
  <line id="" style="fill:none;stroke:black;opacity:1;stroke-width:0.5;" x1="263" x2="3036" y1="1903" y2="1903"/>
  <g id="" transform="matrix(1 0 0 1 263 1933)">
   <path d="M9.24805 0.830078C13.5547 0.830078 17.1387-2.74414 17.1387-7.05078C17.1387-11.3574 13.5449-14.9316 9.23828-14.9316C4.94141-14.9316 1.36719-11.3574 1.36719-7.05078C1.36719-2.74414 4.95117 0.830078 9.24805 0.830078ZM9.24805-0.654297C5.70312-0.654297 2.87109-3.49609 2.87109-7.05078C2.87109-10.6055 5.69336-13.4473 9.23828-13.4473C12.793-13.4473 15.6348-10.6055 15.6445-7.05078C15.6543-3.49609 12.8027-0.654297 9.24805-0.654297ZM6.39648-6.31836L8.50586-6.31836L8.50586-4.19922C8.50586-3.75977 8.79883-3.45703 9.22852-3.45703C9.67773-3.45703 9.9707-3.75977 9.9707-4.19922L9.9707-6.31836L12.0996-6.31836C12.5391-6.31836 12.8418-6.61133 12.8418-7.04102C12.8418-7.48047 12.5391-7.7832 12.0996-7.7832L9.9707-7.7832L9.9707-9.89258C9.9707-10.3418 9.67773-10.6445 9.22852-10.6445C8.79883-10.6445 8.50586-10.3418 8.50586-9.89258L8.50586-7.7832L6.39648-7.7832C5.94727-7.7832 5.64453-7.48047 5.64453-7.04102C5.64453-6.61133 5.94727-6.31836 6.39648-6.31836Z"/>
  </g>
  <g id="" transform="matrix(1 0 0 1 281.506 1933)">
   <path d="M11.709 2.91016C17.1582 2.91016 21.6699-1.61133 21.6699-7.05078C21.6699-12.5 17.1484-17.0117 11.6992-17.0117C6.25977-17.0117 1.74805-12.5 1.74805-7.05078C1.74805-1.61133 6.26953 2.91016 11.709 2.91016ZM11.709 1.25C7.09961 1.25 3.41797-2.44141 3.41797-7.05078C3.41797-11.6602 7.08984-15.3516 11.6992-15.3516C16.3086-15.3516 20-11.6602 20.0098-7.05078C20.0195-2.44141 16.3184 1.25 11.709 1.25ZM7.98828-6.23047L10.8789-6.23047L10.8789-3.32031C10.8789-2.83203 11.2109-2.5 11.6895-2.5C12.1777-2.5 12.5195-2.83203 12.5195-3.32031L12.5195-6.23047L15.4297-6.23047C15.918-6.23047 16.25-6.5625 16.25-7.04102C16.25-7.5293 15.918-7.87109 15.4297-7.87109L12.5195-7.87109L12.5195-10.7617C12.5195-11.2695 12.1777-11.6016 11.6895-11.6016C11.2109-11.6016 10.8789-11.2598 10.8789-10.7617L10.8789-7.87109L7.98828-7.87109C7.48047-7.87109 7.14844-7.5293 7.14844-7.04102C7.14844-6.5625 7.49023-6.23047 7.98828-6.23047Z"/>
  </g>
  <g id="" transform="matrix(1 0 0 1 304.924 1933)">
   <path d="M14.9707 5.66406C21.9336 5.66406 27.6953-0.0976562 27.6953-7.05078C27.6953-14.0137 21.9238-19.7754 14.9609-19.7754C8.00781-19.7754 2.25586-14.0137 2.25586-7.05078C2.25586-0.0976562 8.01758 5.66406 14.9707 5.66406ZM14.9707 3.84766C8.93555 3.84766 4.08203-1.01562 4.08203-7.05078C4.08203-13.0957 8.92578-17.9492 14.9609-17.9492C21.0059-17.9492 25.8594-13.0957 25.8691-7.05078C25.8789-1.01562 21.0156 3.84766 14.9707 3.84766ZM10.0586-6.14258L14.0625-6.14258L14.0625-2.12891C14.0625-1.5918 14.4336-1.2207 14.9512-1.2207C15.4883-1.2207 15.8594-1.5918 15.8594-2.12891L15.8594-6.14258L19.8828-6.14258C20.4102-6.14258 20.791-6.51367 20.791-7.03125C20.791-7.56836 20.4199-7.94922 19.8828-7.94922L15.8594-7.94922L15.8594-11.9531C15.8594-12.5098 15.4883-12.8809 14.9512-12.8809C14.4336-12.8809 14.0625-12.5 14.0625-11.9531L14.0625-7.94922L10.0586-7.94922C9.50195-7.94922 9.13086-7.56836 9.13086-7.03125C9.13086-6.51367 9.51172-6.14258 10.0586-6.14258Z"/>
  </g>
  <text style="stroke:none;fill:black;font-family:-apple-system,&quot;SF Pro Display&quot;,&quot;SF Pro Text&quot;,Helvetica,sans-serif;font-weight:bold;" transform="matrix(1 0 0 1 263 1953)">Design Variations</text>
  <text style="stroke:none;fill:black;font-family:-apple-system,&quot;SF Pro Display&quot;,&quot;SF Pro Text&quot;,Helvetica,sans-serif;" transform="matrix(1 0 0 1 263 1971)">Symbols are supported in up to nine weights and three scales.</text>
  <text style="stroke:none;fill:black;font-family:-apple-system,&quot;SF Pro Display&quot;,&quot;SF Pro Text&quot;,Helvetica,sans-serif;" transform="matrix(1 0 0 1 263 1989)">For optimal layout with text and other symbols, vertically align</text>
  <text style="stroke:none;fill:black;font-family:-apple-system,&quot;SF Pro Display&quot;,&quot;SF Pro Text&quot;,Helvetica,sans-serif;" transform="matrix(1 0 0 1 263 2007)">symbols with the adjacent text.</text>
  <line id="" style="fill:none;stroke:#00AEEF;stroke-width:0.5;opacity:1.0;" x1="776" x2="776" y1="1919" y2="1933"/>
  <g id="" transform="matrix(1 0 0 1 776 1933)">
   <path d="M3.31055 0.126953C3.82812 0.126953 4.08203-0.0683594 4.26758-0.605469L5.52734-4.0625L11.2891-4.0625L12.5488-0.605469C12.7344-0.0683594 12.9883 0.126953 13.4961 0.126953C14.0137 0.126953 14.3457-0.185547 14.3457-0.673828C14.3457-0.839844 14.3164-0.986328 14.2383-1.20117L9.6582-13.3887C9.43359-13.9941 9.0332-14.2871 8.4082-14.2871C7.80273-14.2871 7.39258-13.9941 7.17773-13.3984L2.59766-1.19141C2.51953-0.976562 2.49023-0.830078 2.49023-0.664062C2.49023-0.175781 2.80273 0.126953 3.31055 0.126953ZM6.00586-5.53711L8.37891-12.1094L8.42773-12.1094L10.8008-5.53711Z"/>
  </g>
  <line id="" style="fill:none;stroke:#00AEEF;stroke-width:0.5;opacity:1.0;" x1="792.836" x2="792.836" y1="1919" y2="1933"/>
  <text style="stroke:none;fill:black;font-family:-apple-system,&quot;SF Pro Display&quot;,&quot;SF Pro Text&quot;,Helvetica,sans-serif;font-weight:bold;" transform="matrix(1 0 0 1 776 1953)">Margins</text>
  <text style="stroke:none;fill:black;font-family:-apple-system,&quot;SF Pro Display&quot;,&quot;SF Pro Text&quot;,Helvetica,sans-serif;" transform="matrix(1 0 0 1 776 1971)">Leading and trailing margins on the left and right side of each symbol</text>
  <text style="stroke:none;fill:black;font-family:-apple-system,&quot;SF Pro Display&quot;,&quot;SF Pro Text&quot;,Helvetica,sans-serif;" transform="matrix(1 0 0 1 776 1989)">can be adjusted by modifying the x-location of the margin guidelines.</text>
  <text style="stroke:none;fill:black;font-family:-apple-system,&quot;SF Pro Display&quot;,&quot;SF Pro Text&quot;,Helvetica,sans-serif;" transform="matrix(1 0 0 1 776 2007)">Modifications are automatically applied proportionally to all</text>
  <text style="stroke:none;fill:black;font-family:-apple-system,&quot;SF Pro Display&quot;,&quot;SF Pro Text&quot;,Helvetica,sans-serif;" transform="matrix(1 0 0 1 776 2025)">scales and weights.</text>
  <g id="" transform="matrix(1 0 0 1 1289 1933)">
   <path d="M2.8418 1.86523L4.54102 3.57422C5.40039 4.44336 6.38672 4.38477 7.31445 3.35938L17.4902-7.85156C17.7539-7.76367 18.0273-7.7832 18.3398-7.8418L19.4043-8.03711L20.0684-7.36328L20.0293-6.80664C19.9902-6.30859 20.1172-5.92773 20.6055-5.44922L21.3672-4.70703C21.8457-4.22852 22.4609-4.19922 22.9297-4.66797L25.8398-7.58789C26.3086-8.05664 26.2891-8.65234 25.8105-9.13086L25.0391-9.89258C24.5605-10.3711 24.1895-10.5273 23.7109-10.4883L23.1348-10.4395L22.4902-11.0742L22.7344-12.1973C22.8613-12.7637 22.7051-13.2031 22.1191-13.7891L19.9219-15.9766C16.582-19.2969 12.1484-19.2188 9.25781-16.3281C8.83789-15.918 8.80859-15.3418 9.04297-14.9512C9.27734-14.5898 9.73633-14.3555 10.3809-14.5215C11.8457-14.8633 13.3691-14.9219 14.7949-13.9844L14.209-12.5293C14.0137-12.0508 13.9844-11.6504 14.1113-11.2891L3.04688-0.898438C2.06055 0.0195312 1.98242 0.996094 2.8418 1.86523ZM10.752-15.957C13.1836-17.7344 16.4746-17.4316 18.7012-15.2051L21.1328-12.793C21.3672-12.5586 21.4062-12.373 21.3379-12.0312L21.0156-10.5469L22.5195-9.0625L23.5059-9.12109C23.7598-9.13086 23.8379-9.11133 24.0332-8.91602L24.6094-8.33984L22.168-5.89844L21.5918-6.47461C21.3965-6.66992 21.3672-6.74805 21.377-7.01172L21.4453-7.98828L19.9512-9.47266L18.4277-9.21875C18.1055-9.15039 17.959-9.17969 17.7148-9.41406L15.7129-11.416C15.459-11.6504 15.4297-11.8164 15.5859-12.1875L16.4648-14.2773C14.9023-15.7324 12.8711-16.3574 10.8398-15.7617C10.6836-15.7227 10.625-15.8496 10.752-15.957ZM5.27344 2.30469L4.10156 1.14258C3.63281 0.683594 3.74023 0.341797 4.14062-0.0195312L14.9512-10.1953L16.416-8.71094L6.42578 2.27539C6.07422 2.67578 5.74219 2.77344 5.27344 2.30469Z"/>
  </g>
  <text style="stroke:none;fill:black;font-family:-apple-system,&quot;SF Pro Display&quot;,&quot;SF Pro Text&quot;,Helvetica,sans-serif;font-weight:bold;" transform="matrix(1 0 0 1 1289 1953)">Exporting</text>
  <text style="stroke:none;fill:black;font-family:-apple-system,&quot;SF Pro Display&quot;,&quot;SF Pro Text&quot;,Helvetica,sans-serif;" transform="matrix(1 0 0 1 1289 1971)">Symbols should be outlined when exporting to ensure the</text>
  <text style="stroke:none;fill:black;font-family:-apple-system,&quot;SF Pro Display&quot;,&quot;SF Pro Text&quot;,Helvetica,sans-serif;" transform="matrix(1 0 0 1 1289 1989)">design is preserved when submitting to Xcode.</text>
  <text id="template-version" style="stroke:none;fill:black;font-family:-apple-system,&quot;SF Pro Display&quot;,&quot;SF Pro Text&quot;,Helvetica,sans-serif;text-anchor:end;" transform="matrix(1 0 0 1 3036 1933)">Template v.2.0</text>
  <text style="stroke:none;fill:black;font-family:-apple-system,&quot;SF Pro Display&quot;,&quot;SF Pro Text&quot;,Helvetica,sans-serif;text-anchor:end;" transform="matrix(1 0 0 1 3036 1951)">Requires Xcode 12 or greater</text>
  <text style="stroke:none;fill:black;font-family:-apple-system,&quot;SF Pro Display&quot;,&quot;SF Pro Text&quot;,Helvetica,sans-serif;text-anchor:end;" transform="matrix(1 0 0 1 3036 1969)">Generated from plusminus</text>
  <text style="stroke:none;fill:black;font-family:-apple-system,&quot;SF Pro Display&quot;,&quot;SF Pro Text&quot;,Helvetica,sans-serif;text-anchor:end;" transform="matrix(1 0 0 1 3036 1987)">Typeset at 100 points</text>
  <text style="stroke:none;fill:black;font-family:-apple-system,&quot;SF Pro Display&quot;,&quot;SF Pro Text&quot;,Helvetica,sans-serif;" transform="matrix(1 0 0 1 263 726)">Small</text>
  <text style="stroke:none;fill:black;font-family:-apple-system,&quot;SF Pro Display&quot;,&quot;SF Pro Text&quot;,Helvetica,sans-serif;" transform="matrix(1 0 0 1 263 1156)">Medium</text>
  <text style="stroke:none;fill:black;font-family:-apple-system,&quot;SF Pro Display&quot;,&quot;SF Pro Text&quot;,Helvetica,sans-serif;" transform="matrix(1 0 0 1 263 1586)">Large</text>
 </g>
 <g id="Guides">
  <g id="H-reference" style="fill:#27AAE1;stroke:none;" transform="matrix(1 0 0 1 339 696)">
   <path d="M0.976562 0L3.66211 0L12.9883-24.4629L45.752-24.4629L55.127 0L57.7637 0L30.6152-70.459L28.125-70.459ZM29.3457-67.1387L29.4434-67.1387L44.873-26.709L13.8672-26.709Z"/>
  </g>
  <line id="Baseline-S" style="fill:none;stroke:#27AAE1;opacity:1;stroke-width:0.5;" x1="263" x2="3036" y1="696" y2="696"/>
  <line id="Capline-S" style="fill:none;stroke:#27AAE1;opacity:1;stroke-width:0.5;" x1="263" x2="3036" y1="625.541" y2="625.541"/>
  <g id="H-reference" style="fill:#27AAE1;stroke:none;" transform="matrix(1 0 0 1 339 1126)">
   <path d="M0.976562 0L3.66211 0L12.9883-24.4629L45.752-24.4629L55.127 0L57.7637 0L30.6152-70.459L28.125-70.459ZM29.3457-67.1387L29.4434-67.1387L44.873-26.709L13.8672-26.709Z"/>
  </g>
  <line id="Baseline-M" style="fill:none;stroke:#27AAE1;opacity:1;stroke-width:0.5;" x1="263" x2="3036" y1="1126" y2="1126"/>
  <line id="Capline-M" style="fill:none;stroke:#27AAE1;opacity:1;stroke-width:0.5;" x1="263" x2="3036" y1="1055.54" y2="1055.54"/>
  <g id="H-reference" style="fill:#27AAE1;stroke:none;" transform="matrix(1 0 0 1 339 1556)">
   <path d="M0.976562 0L3.66211 0L12.9883-24.4629L45.752-24.4629L55.127 0L57.7637 0L30.6152-70.459L28.125-70.459ZM29.3457-67.1387L29.4434-67.1387L44.873-26.709L13.8672-26.709Z"/>
  </g>
  <line id="Baseline-L" style="fill:none;stroke:#27AAE1;opacity:1;stroke-width:0.5;" x1="263" x2="3036" y1="1556" y2="1556"/>
  <line id="Capline-L" style="fill:none;stroke:#27AAE1;opacity:1;stroke-width:0.5;" x1="263" x2="3036" y1="1485.54" y2="1485.54"/>
  <line id="left-margin" style="fill:none;stroke:#00AEEF;stroke-width:0.5;opacity:1.0;" x1="1407.83" x2="1407.83" y1="1030.79" y2="1150.12"/>
  <line id="right-margin" style="fill:none;stroke:#00AEEF;stroke-width:0.5;opacity:1.0;" x1="1491.86" x2="1491.86" y1="1030.79" y2="1150.12"/>
 </g>
 <g id="Symbols">
  <g id="Black-L" transform="matrix(1 0 0 1 2874.66 1556)">
   <path d="M16.0645-54.3945C16.0645-47.2656 20.9961-42.334 28.125-42.334L46.6797-42.334L46.6797-24.0234C46.6797-16.8945 51.6113-12.0117 58.7402-12.0117C65.8691-12.0117 70.8008-16.8945 70.8008-24.0234L70.8008-42.334L89.3555-42.334C96.5332-42.334 101.416-47.2656 101.416-54.3945C101.416-61.5234 96.5332-66.4551 89.3555-66.4551L70.8008-66.4551L70.8008-84.7168C70.8008-91.7969 65.8691-96.7285 58.7402-96.7285C51.6113-96.7285 46.6797-91.7969 46.6797-84.7168L46.6797-66.4551L28.125-66.4551C20.9961-66.4551 16.0645-61.5234 16.0645-54.3945ZM16.0645 14.209C16.0645 21.3379 20.9961 26.2695 28.125 26.2695L89.3555 26.2695C96.4844 26.2695 101.416 21.3379 101.416 14.209C101.416 7.03125 96.4844 2.09961 89.3555 2.09961L28.125 2.09961C20.9961 2.09961 16.0645 7.03125 16.0645 14.209Z"/>
  </g>
  <g id="Heavy-L" transform="matrix(1 0 0 1 2579 1556)">
   <path d="M16.0645-53.5156C16.0645-47.4121 20.3125-43.1641 26.416-43.1641L47.3145-43.1641L47.3145-22.6562C47.3145-16.6016 51.6113-12.3535 57.666-12.3535C63.7207-12.3535 68.0176-16.6016 68.0176-22.6562L68.0176-43.1641L88.9648-43.1641C95.0195-43.1641 99.3164-47.4121 99.3164-53.5156C99.3164-59.5703 95.0195-63.8672 88.9648-63.8672L68.0176-63.8672L68.0176-84.2285C68.0176-90.2832 63.7207-94.5312 57.666-94.5312C51.6113-94.5312 47.3145-90.2832 47.3145-84.2285L47.3145-63.8672L26.416-63.8672C20.3125-63.8672 16.0645-59.5703 16.0645-53.5156ZM16.0645 13.7207C16.0645 19.7754 20.3613 24.0723 26.416 24.0723L88.9648 24.0723C95.0195 24.0723 99.3164 19.7754 99.3164 13.7207C99.3164 7.66602 95.0195 3.36914 88.9648 3.36914L26.416 3.36914C20.3613 3.36914 16.0645 7.66602 16.0645 13.7207Z"/>
  </g>
  <g id="Bold-L" transform="matrix(1 0 0 1 2283.48 1556)">
   <path d="M16.0645-52.4902C16.0645-47.6074 19.6289-44.0918 24.4629-44.0918L48.0469-44.0918L48.0469-21.1426C48.0469-16.2598 51.5625-12.793 56.4453-12.793C61.3281-12.793 64.8926-16.2598 64.8926-21.1426L64.8926-44.0918L88.4766-44.0918C93.3594-44.0918 96.9238-47.6074 96.9238-52.4902C96.9238-57.373 93.3594-60.9375 88.4766-60.9375L64.8926-60.9375L64.8926-83.7402C64.8926-88.5742 61.3281-92.0898 56.4453-92.0898C51.5625-92.0898 48.0469-88.5742 48.0469-83.7402L48.0469-60.9375L24.4629-60.9375C19.6289-60.9375 16.0645-57.373 16.0645-52.4902ZM16.0645 13.1836C16.0645 18.0664 19.6289 21.6309 24.4629 21.6309L88.4766 21.6309C93.3105 21.6309 96.9238 18.0664 96.9238 13.1836C96.9238 8.30078 93.3105 4.78516 88.4766 4.78516L24.4629 4.78516C19.6289 4.78516 16.0645 8.30078 16.0645 13.1836Z"/>
  </g>
  <g id="Semibold-L" transform="matrix(1 0 0 1 1987.6 1556)">
   <path d="M16.0645-51.8066C16.0645-47.7539 19.0918-44.7266 23.1445-44.7266L48.5352-44.7266L48.5352-20.0684C48.5352-16.0645 51.5625-13.0371 55.6152-13.0371C59.668-13.0371 62.7441-16.0645 62.7441-20.0684L62.7441-44.7266L88.1836-44.7266C92.2363-44.7266 95.2637-47.7539 95.2637-51.8066C95.2637-55.8594 92.2363-58.8867 88.1836-58.8867L62.7441-58.8867L62.7441-83.3984C62.7441-87.4023 59.668-90.3809 55.6152-90.3809C51.5625-90.3809 48.5352-87.4023 48.5352-83.3984L48.5352-58.8867L23.1445-58.8867C19.0918-58.8867 16.0645-55.8594 16.0645-51.8066ZM16.0645 12.8418C16.0645 16.8945 19.1406 19.9219 23.1445 19.9219L88.1836 19.9219C92.1875 19.9219 95.2637 16.8945 95.2637 12.8418C95.2637 8.78906 92.1875 5.76172 88.1836 5.76172L23.1445 5.76172C19.1406 5.76172 16.0645 8.78906 16.0645 12.8418Z"/>
  </g>
  <g id="Medium-L" transform="matrix(1 0 0 1 1691.53 1556)">
   <path d="M16.0645-51.2695C16.0645-47.8516 18.7012-45.2148 22.168-45.2148L48.9258-45.2148L48.9258-19.2383C48.9258-15.8691 51.5625-13.2324 54.9805-13.2324C58.4473-13.2324 61.084-15.8691 61.084-19.2383L61.084-45.2148L87.9395-45.2148C91.3574-45.2148 93.9941-47.8516 93.9941-51.2695C93.9941-54.7363 91.3574-57.373 87.9395-57.373L61.084-57.373L61.084-83.1055C61.084-86.4746 58.4473-89.1113 54.9805-89.1113C51.5625-89.1113 48.9258-86.4746 48.9258-83.1055L48.9258-57.373L22.168-57.373C18.7012-57.373 16.0645-54.7363 16.0645-51.2695ZM16.0645 12.5488C16.0645 16.0156 18.75 18.6523 22.168 18.6523L87.9395 18.6523C91.3086 18.6523 93.9941 16.0156 93.9941 12.5488C93.9941 9.13086 91.3086 6.49414 87.9395 6.49414L22.168 6.49414C18.75 6.49414 16.0645 9.13086 16.0645 12.5488Z"/>
  </g>
  <g id="Regular-L" transform="matrix(1 0 0 1 1395.62 1556)">
   <path d="M16.0645-50.5859C16.0645-47.998 18.2129-45.8496 20.8496-45.8496L49.4141-45.8496L49.4141-18.2129C49.4141-15.625 51.5625-13.5254 54.1992-13.5254C56.7871-13.5254 58.9355-15.625 58.9355-18.2129L58.9355-45.8496L87.5977-45.8496C90.2344-45.8496 92.3828-47.998 92.3828-50.5859C92.3828-53.2227 90.2344-55.3711 87.5977-55.3711L58.9355-55.3711L58.9355-82.7637C58.9355-85.3516 56.7871-87.4512 54.1992-87.4512C51.5625-87.4512 49.4141-85.3516 49.4141-82.7637L49.4141-55.3711L20.8496-55.3711C18.2129-55.3711 16.0645-53.2227 16.0645-50.5859ZM16.0645 12.207C16.0645 14.7949 18.2617 16.9922 20.8496 16.9922L87.5977 16.9922C90.1855 16.9922 92.3828 14.7949 92.3828 12.207C92.3828 9.57031 90.1855 7.42188 87.5977 7.42188L20.8496 7.42188C18.2617 7.42188 16.0645 9.57031 16.0645 12.207Z"/>
  </g>
  <g id="Light-L" transform="matrix(1 0 0 1 1098.91 1556)">
   <path d="M16.0645-50C16.0645-48.0469 17.6758-46.4355 19.6289-46.4355L50.5859-46.4355L50.5859-16.4551C50.5859-14.5508 52.1973-12.9395 54.1992-12.9395C56.1523-12.9395 57.7637-14.5508 57.7637-16.4551L57.7637-46.4355L88.8184-46.4355C90.7715-46.4355 92.3828-48.0469 92.3828-50C92.3828-52.002 90.7715-53.6133 88.8184-53.6133L57.7637-53.6133L57.7637-83.3008C57.7637-85.2539 56.1523-86.8652 54.1992-86.8652C52.1973-86.8652 50.5859-85.2539 50.5859-83.3008L50.5859-53.6133L19.6289-53.6133C17.6758-53.6133 16.0645-52.002 16.0645-50ZM16.0645 12.793C16.0645 14.7461 17.7246 16.4062 19.6289 16.4062L88.8184 16.4062C90.7227 16.4062 92.3828 14.7461 92.3828 12.793C92.3828 10.8398 90.7227 9.22852 88.8184 9.22852L19.6289 9.22852C17.7246 9.22852 16.0645 10.8398 16.0645 12.793Z"/>
  </g>
  <g id="Thin-L" transform="matrix(1 0 0 1 802.199 1556)">
   <path d="M16.0645-49.2188C16.0645-48.0957 16.9922-47.2168 18.0664-47.2168L52.1484-47.2168L52.1484-14.1602C52.1484-13.0371 53.0762-12.1582 54.1992-12.1582C55.2734-12.1582 56.2012-13.0371 56.2012-14.1602L56.2012-47.2168L90.3809-47.2168C91.4551-47.2168 92.3828-48.0957 92.3828-49.2188C92.3828-50.3418 91.4551-51.2695 90.3809-51.2695L56.2012-51.2695L56.2012-84.0332C56.2012-85.1562 55.2734-86.084 54.1992-86.084C53.0762-86.084 52.1484-85.1562 52.1484-84.0332L52.1484-51.2695L18.0664-51.2695C16.9922-51.2695 16.0645-50.3418 16.0645-49.2188ZM16.0645 13.5742C16.0645 14.6973 16.9922 15.625 18.0664 15.625L90.3809 15.625C91.4551 15.625 92.3828 14.6973 92.3828 13.5742C92.3828 12.4512 91.4551 11.5723 90.3809 11.5723L18.0664 11.5723C16.9922 11.5723 16.0645 12.4512 16.0645 13.5742Z"/>
  </g>
  <g id="Ultralight-L" transform="matrix(1 0 0 1 505.487 1556)">
   <path d="M16.0645-48.8281C16.0645-48.1445 16.6016-47.6074 17.2852-47.6074L52.9785-47.6074L52.9785-12.9883C52.9785-12.3047 53.5156-11.7676 54.1992-11.7676C54.834-11.7676 55.4199-12.3047 55.4199-12.9883L55.4199-47.6074L91.1621-47.6074C91.8457-47.6074 92.3828-48.1445 92.3828-48.8281C92.3828-49.5117 91.8457-50.0488 91.1621-50.0488L55.4199-50.0488L55.4199-84.4238C55.4199-85.1074 54.834-85.6445 54.1992-85.6445C53.5156-85.6445 52.9785-85.1074 52.9785-84.4238L52.9785-50.0488L17.2852-50.0488C16.6016-50.0488 16.0645-49.5117 16.0645-48.8281ZM16.0645 13.9648C16.0645 14.6484 16.6016 15.1855 17.2852 15.1855L91.1621 15.1855C91.8457 15.1855 92.3828 14.6484 92.3828 13.9648C92.3828 13.3301 91.8457 12.7441 91.1621 12.7441L17.2852 12.7441C16.6016 12.7441 16.0645 13.3301 16.0645 13.9648Z"/>
  </g>
  <g id="Black-M" transform="matrix(1 0 0 1 2886.43 1126)">
   <path d="M12.4512-50.9766C12.4512-44.3359 16.8457-39.9414 23.4863-39.9414L35.9375-39.9414L35.9375-27.4902C35.9375-20.8496 40.332-16.4551 46.9727-16.4551C53.6133-16.4551 58.0078-20.8496 58.0078-27.4902L58.0078-39.9414L70.459-39.9414C77.0996-39.9414 81.4941-44.3359 81.4941-50.9766C81.4941-57.6172 77.0996-62.0117 70.459-62.0117L58.0078-62.0117L58.0078-74.4629C58.0078-81.1035 53.6133-85.5469 46.9727-85.5469C40.332-85.5469 35.9375-81.1035 35.9375-74.4629L35.9375-62.0117L23.4863-62.0117C16.8457-62.0117 12.4512-57.6172 12.4512-50.9766ZM12.4512 4.00391C12.4512 10.6445 16.8457 15.0879 23.4863 15.0879L70.459 15.0879C77.0996 15.0879 81.4941 10.6445 81.4941 4.00391C81.4941-2.63672 77.0996-7.03125 70.459-7.03125L23.4863-7.03125C16.8457-7.03125 12.4512-2.63672 12.4512 4.00391Z"/>
  </g>
  <g id="Heavy-M" transform="matrix(1 0 0 1 2590.89 1126)">
   <path d="M12.4512-50.1465C12.4512-44.5312 16.3086-40.6738 21.9238-40.6738L36.3281-40.6738L36.3281-26.416C36.3281-20.8008 40.1855-16.9922 45.8008-16.9922C51.416-16.9922 55.2734-20.8008 55.2734-26.416L55.2734-40.6738L69.6777-40.6738C75.3418-40.6738 79.1504-44.5312 79.1504-50.1465C79.1504-55.7617 75.3418-59.6191 69.6777-59.6191L55.2734-59.6191L55.2734-73.8281C55.2734-79.4434 51.416-83.3008 45.8008-83.3008C40.1855-83.3008 36.3281-79.4434 36.3281-73.8281L36.3281-59.6191L21.9238-59.6191C16.3086-59.6191 12.4512-55.7617 12.4512-50.1465ZM12.4512 3.36914C12.4512 8.98438 16.3086 12.8418 21.9238 12.8418L69.6777 12.8418C75.293 12.8418 79.1504 8.98438 79.1504 3.36914C79.1504-2.29492 75.293-6.10352 69.6777-6.10352L21.9238-6.10352C16.3086-6.10352 12.4512-2.29492 12.4512 3.36914Z"/>
  </g>
  <g id="Bold-M" transform="matrix(1 0 0 1 2295.47 1126)">
   <path d="M12.4512-49.2188C12.4512-44.7266 15.625-41.5039 20.166-41.5039L36.7676-41.5039L36.7676-25.2441C36.7676-20.752 39.9902-17.5781 44.4824-17.5781C48.9746-17.5781 52.1973-20.752 52.1973-25.2441L52.1973-41.5039L68.8477-41.5039C73.3398-41.5039 76.5625-44.7266 76.5625-49.2188C76.5625-53.7598 73.3398-56.9336 68.8477-56.9336L52.1973-56.9336L52.1973-73.0957C52.1973-77.5879 48.9746-80.7617 44.4824-80.7617C39.9902-80.7617 36.7676-77.5879 36.7676-73.0957L36.7676-56.9336L20.166-56.9336C15.625-56.9336 12.4512-53.7598 12.4512-49.2188ZM12.4512 2.58789C12.4512 7.12891 15.6738 10.3027 20.166 10.3027L68.8477 10.3027C73.3398 10.3027 76.5625 7.12891 76.5625 2.58789C76.5625-1.9043 73.3398-5.07812 68.8477-5.07812L20.166-5.07812C15.6738-5.07812 12.4512-1.9043 12.4512 2.58789Z"/>
  </g>
  <g id="Semibold-M" transform="matrix(1 0 0 1 1999.66 1126)">
   <path d="M12.4512-48.584C12.4512-44.873 15.1855-42.0898 18.9453-42.0898L37.0605-42.0898L37.0605-24.4629C37.0605-20.752 39.8438-18.0176 43.5547-18.0176C47.3145-18.0176 50.0488-20.752 50.0488-24.4629L50.0488-42.0898L68.2617-42.0898C71.9727-42.0898 74.7559-44.873 74.7559-48.584C74.7559-52.3438 71.9727-55.0781 68.2617-55.0781L50.0488-55.0781L50.0488-72.6074C50.0488-76.3184 47.3145-79.0527 43.5547-79.0527C39.8438-79.0527 37.0605-76.3184 37.0605-72.6074L37.0605-55.0781L18.9453-55.0781C15.1855-55.0781 12.4512-52.3438 12.4512-48.584ZM12.4512 2.09961C12.4512 5.85938 15.2344 8.59375 18.9453 8.59375L68.2617 8.59375C71.9727 8.59375 74.7559 5.85938 74.7559 2.09961C74.7559-1.66016 71.9727-4.39453 68.2617-4.39453L18.9453-4.39453C15.2344-4.39453 12.4512-1.66016 12.4512 2.09961Z"/>
  </g>
  <g id="Medium-M" transform="matrix(1 0 0 1 1703.64 1126)">
   <path d="M12.4512-48.0957C12.4512-44.9707 14.8438-42.5293 18.0176-42.5293L37.3047-42.5293L37.3047-23.8281C37.3047-20.7031 39.7461-18.3105 42.8711-18.3105C46.0449-18.3105 48.4375-20.7031 48.4375-23.8281L48.4375-42.5293L67.8223-42.5293C70.9473-42.5293 73.3887-44.9707 73.3887-48.0957C73.3887-51.2695 70.9473-53.6621 67.8223-53.6621L48.4375-53.6621L48.4375-72.2656C48.4375-75.3418 46.0449-77.7344 42.8711-77.7344C39.7461-77.7344 37.3047-75.3418 37.3047-72.2656L37.3047-53.6621L18.0176-53.6621C14.8438-53.6621 12.4512-51.2695 12.4512-48.0957ZM12.4512 1.70898C12.4512 4.88281 14.8926 7.27539 18.0176 7.27539L67.8223 7.27539C70.9473 7.27539 73.3887 4.88281 73.3887 1.70898C73.3887-1.46484 70.9473-3.85742 67.8223-3.85742L18.0176-3.85742C14.8926-3.85742 12.4512-1.46484 12.4512 1.70898Z"/>
  </g>
  <g id="Regular-M" transform="matrix(1 0 0 1 1407.83 1126)">
   <path d="M12.4512-47.4609C12.4512-45.0684 14.4043-43.1152 16.7969-43.1152L37.6465-43.1152L37.6465-22.998C37.6465-20.6543 39.5996-18.75 41.9922-18.75C44.3848-18.75 46.3867-20.6543 46.3867-22.998L46.3867-43.1152L67.2363-43.1152C69.6289-43.1152 71.582-45.0684 71.582-47.4609C71.582-49.8535 69.6289-51.8555 67.2363-51.8555L46.3867-51.8555L46.3867-71.7285C46.3867-74.1211 44.3848-76.0254 41.9922-76.0254C39.5996-76.0254 37.6465-74.1211 37.6465-71.7285L37.6465-51.8555L16.7969-51.8555C14.4043-51.8555 12.4512-49.8535 12.4512-47.4609ZM12.4512 1.17188C12.4512 3.61328 14.4531 5.56641 16.7969 5.56641L67.2363 5.56641C69.5801 5.56641 71.582 3.61328 71.582 1.17188C71.582-1.2207 69.5801-3.17383 67.2363-3.17383L16.7969-3.17383C14.4531-3.17383 12.4512-1.2207 12.4512 1.17188Z"/>
  </g>
  <g id="Light-M" transform="matrix(1 0 0 1 1111.12 1126)">
   <path d="M12.4512-46.9727C12.4512-45.1172 13.9648-43.6523 15.7715-43.6523L38.6719-43.6523L38.6719-21.4844C38.6719-19.6777 40.1855-18.2129 41.9922-18.2129C43.7988-18.2129 45.3125-19.6777 45.3125-21.4844L45.3125-43.6523L68.3105-43.6523C70.1172-43.6523 71.582-45.1172 71.582-46.9727C71.582-48.7793 70.1172-50.2441 68.3105-50.2441L45.3125-50.2441L45.3125-72.2656C45.3125-74.0234 43.7988-75.4883 41.9922-75.4883C40.1855-75.4883 38.6719-74.0234 38.6719-72.2656L38.6719-50.2441L15.7715-50.2441C13.9648-50.2441 12.4512-48.7793 12.4512-46.9727ZM12.4512 1.70898C12.4512 3.51562 13.9648 5.0293 15.7715 5.0293L68.3105 5.0293C70.0684 5.0293 71.582 3.51562 71.582 1.70898C71.582-0.0976562 70.0684-1.5625 68.3105-1.5625L15.7715-1.5625C13.9648-1.5625 12.4512-0.0976562 12.4512 1.70898Z"/>
  </g>
  <g id="Thin-M" transform="matrix(1 0 0 1 814.406 1126)">
   <path d="M12.4512-46.2402C12.4512-45.2148 13.3301-44.3359 14.3555-44.3359L40.0879-44.3359L40.0879-19.3848C40.0879-18.3594 40.9668-17.5293 41.9922-17.5293C43.0176-17.5293 43.8965-18.3594 43.8965-19.3848L43.8965-44.3359L69.6777-44.3359C70.752-44.3359 71.582-45.2148 71.582-46.2402C71.582-47.3145 70.752-48.1445 69.6777-48.1445L43.8965-48.1445L43.8965-72.9004C43.8965-73.9258 43.0176-74.8047 41.9922-74.8047C40.9668-74.8047 40.0879-73.9258 40.0879-72.9004L40.0879-48.1445L14.3555-48.1445C13.3301-48.1445 12.4512-47.3145 12.4512-46.2402ZM12.4512 2.44141C12.4512 3.4668 13.3301 4.3457 14.3555 4.3457L69.6777 4.3457C70.7031 4.3457 71.582 3.4668 71.582 2.44141C71.582 1.36719 70.7031 0.537109 69.6777 0.537109L14.3555 0.537109C13.3301 0.537109 12.4512 1.36719 12.4512 2.44141Z"/>
  </g>
  <g id="Ultralight-M" transform="matrix(1 0 0 1 517.695 1126)">
   <path d="M12.4512-45.8984C12.4512-45.2148 12.9883-44.6777 13.623-44.6777L40.8203-44.6777L40.8203-18.3594C40.8203-17.6758 41.3574-17.1387 41.9922-17.1387C42.627-17.1387 43.1641-17.6758 43.1641-18.3594L43.1641-44.6777L70.4102-44.6777C71.0449-44.6777 71.582-45.2148 71.582-45.8984C71.582-46.5332 71.0449-47.0703 70.4102-47.0703L43.1641-47.0703L43.1641-73.2422C43.1641-73.877 42.627-74.4141 41.9922-74.4141C41.3574-74.4141 40.8203-73.877 40.8203-73.2422L40.8203-47.0703L13.623-47.0703C12.9883-47.0703 12.4512-46.5332 12.4512-45.8984ZM12.4512 2.7832C12.4512 3.41797 12.9883 3.95508 13.623 3.95508L70.4102 3.95508C71.0449 3.95508 71.582 3.41797 71.582 2.7832C71.582 2.14844 71.0449 1.61133 70.4102 1.61133L13.623 1.61133C12.9883 1.61133 12.4512 2.14844 12.4512 2.7832Z"/>
  </g>
  <g id="Black-S" transform="matrix(1 0 0 1 2896.68 696)">
   <path d="M9.76562-47.5098C9.76562-42.3828 13.1836-38.9648 18.3105-38.9648L28.1738-38.9648L28.1738-29.1016C28.1738-23.9746 31.5918-20.5566 36.7188-20.5566C41.8457-20.5566 45.2637-23.9746 45.2637-29.1016L45.2637-38.9648L55.127-38.9648C60.2539-38.9648 63.6719-42.3828 63.6719-47.5098C63.6719-52.6367 60.2539-56.0547 55.127-56.0547L45.2637-56.0547L45.2637-65.918C45.2637-71.0449 41.8457-74.4629 36.7188-74.4629C31.5918-74.4629 28.1738-71.0449 28.1738-65.918L28.1738-56.0547L18.3105-56.0547C13.1836-56.0547 9.76562-52.6367 9.76562-47.5098ZM9.76562-4.54102C9.76562 0.585938 13.1836 4.00391 18.3105 4.00391L55.127 4.00391C60.2539 4.00391 63.6719 0.585938 63.6719-4.54102C63.6719-9.66797 60.2539-13.0859 55.127-13.0859L18.3105-13.0859C13.1836-13.0859 9.76562-9.66797 9.76562-4.54102Z"/>
  </g>
  <g id="Heavy-S" transform="matrix(1 0 0 1 2600.87 696)">
   <path d="M9.76562-46.9238C9.76562-42.5293 12.793-39.502 17.2363-39.502L28.3691-39.502L28.3691-28.4668C28.3691-24.0723 31.3965-21.0449 35.8398-21.0449C40.2344-21.0449 43.2617-24.0723 43.2617-28.4668L43.2617-39.502L54.4434-39.502C58.8379-39.502 61.8652-42.5293 61.8652-46.9238C61.8652-51.3672 58.8379-54.3945 54.4434-54.3945L43.2617-54.3945L43.2617-65.3809C43.2617-69.7754 40.2344-72.8027 35.8398-72.8027C31.3965-72.8027 28.3691-69.7754 28.3691-65.3809L28.3691-54.3945L17.2363-54.3945C12.793-54.3945 9.76562-51.3672 9.76562-46.9238ZM9.76562-5.12695C9.76562-0.683594 12.793 2.34375 17.2363 2.34375L54.4434 2.34375C58.8379 2.34375 61.8652-0.683594 61.8652-5.12695C61.8652-9.52148 58.8379-12.5488 54.4434-12.5488L17.2363-12.5488C12.793-12.5488 9.76562-9.52148 9.76562-5.12695Z"/>
  </g>
  <g id="Bold-S" transform="matrix(1 0 0 1 2305.14 696)">
   <path d="M9.76562-46.2891C9.76562-42.6758 12.3535-40.0391 16.0156-40.0391L28.5645-40.0391L28.5645-27.7832C28.5645-24.1211 31.1523-21.582 34.8145-21.582C38.4766-21.582 41.0645-24.1211 41.0645-27.7832L41.0645-40.0391L53.6621-40.0391C57.2754-40.0391 59.9121-42.6758 59.9121-46.2891C59.9121-49.9512 57.2754-52.5391 53.6621-52.5391L41.0645-52.5391L41.0645-64.7461C41.0645-68.3594 38.4766-70.9473 34.8145-70.9473C31.1523-70.9473 28.5645-68.3594 28.5645-64.7461L28.5645-52.5391L16.0156-52.5391C12.3535-52.5391 9.76562-49.9512 9.76562-46.2891ZM9.76562-5.76172C9.76562-2.09961 12.4023 0.488281 16.0156 0.488281L53.6621 0.488281C57.2754 0.488281 59.9121-2.09961 59.9121-5.76172C59.9121-9.375 57.2754-11.9629 53.6621-11.9629L16.0156-11.9629C12.4023-11.9629 9.76562-9.375 9.76562-5.76172Z"/>
  </g>
  <g id="Semibold-S" transform="matrix(1 0 0 1 2009.14 696)">
   <path d="M9.76562-45.8496C9.76562-42.7734 12.0605-40.4297 15.1855-40.4297L28.7109-40.4297L28.7109-27.2949C28.7109-24.2188 31.0059-21.9238 34.1309-21.9238C37.207-21.9238 39.502-24.2188 39.502-27.2949L39.502-40.4297L53.125-40.4297C56.2012-40.4297 58.4961-42.7734 58.4961-45.8496C58.4961-48.9746 56.2012-51.2695 53.125-51.2695L39.502-51.2695L39.502-64.3555C39.502-67.4316 37.207-69.6777 34.1309-69.6777C31.0059-69.6777 28.7109-67.4316 28.7109-64.3555L28.7109-51.2695L15.1855-51.2695C12.0605-51.2695 9.76562-48.9746 9.76562-45.8496ZM9.76562-6.20117C9.76562-3.07617 12.1094-0.78125 15.1855-0.78125L53.125-0.78125C56.2012-0.78125 58.4961-3.07617 58.4961-6.20117C58.4961-9.27734 56.2012-11.5723 53.125-11.5723L15.1855-11.5723C12.1094-11.5723 9.76562-9.27734 9.76562-6.20117Z"/>
  </g>
  <g id="Medium-S" transform="matrix(1 0 0 1 1712.94 696)">
   <path d="M9.76562-45.5078C9.76562-42.8223 11.8652-40.7715 14.5508-40.7715L28.8086-40.7715L28.8086-26.9043C28.8086-24.2676 30.9082-22.2168 33.5938-22.2168C36.2793-22.2168 38.3789-24.2676 38.3789-26.9043L38.3789-40.7715L52.6855-40.7715C55.3711-40.7715 57.4707-42.8223 57.4707-45.5078C57.4707-48.1934 55.3711-50.293 52.6855-50.293L38.3789-50.293L38.3789-64.0137C38.3789-66.6504 36.2793-68.7012 33.5938-68.7012C30.9082-68.7012 28.8086-66.6504 28.8086-64.0137L28.8086-50.293L14.5508-50.293C11.8652-50.293 9.76562-48.1934 9.76562-45.5078ZM9.76562-6.49414C9.76562-3.80859 11.8652-1.75781 14.5508-1.75781L52.6855-1.75781C55.3711-1.75781 57.4707-3.80859 57.4707-6.49414C57.4707-9.22852 55.3711-11.2793 52.6855-11.2793L14.5508-11.2793C11.8652-11.2793 9.76562-9.22852 9.76562-6.49414Z"/>
  </g>
  <g id="Regular-S" transform="matrix(1 0 0 1 1416.91 696)">
   <path d="M9.76562-45.0684C9.76562-42.9199 11.5234-41.1621 13.7207-41.1621L28.9551-41.1621L28.9551-26.416C28.9551-24.3164 30.7617-22.5586 32.9102-22.5586C35.0586-22.5586 36.8652-24.3164 36.8652-26.416L36.8652-41.1621L52.1484-41.1621C54.3457-41.1621 56.1035-42.9199 56.1035-45.0684C56.1035-47.2168 54.3457-49.0234 52.1484-49.0234L36.8652-49.0234L36.8652-63.623C36.8652-65.7227 35.0586-67.4316 32.9102-67.4316C30.7617-67.4316 28.9551-65.7227 28.9551-63.623L28.9551-49.0234L13.7207-49.0234C11.5234-49.0234 9.76562-47.2168 9.76562-45.0684ZM9.76562-6.93359C9.76562-4.78516 11.5723-3.02734 13.7207-3.02734L52.1484-3.02734C54.2969-3.02734 56.1035-4.78516 56.1035-6.93359C56.1035-9.08203 54.2969-10.8887 52.1484-10.8887L13.7207-10.8887C11.5723-10.8887 9.76562-9.08203 9.76562-6.93359Z"/>
  </g>
  <g id="Light-S" transform="matrix(1 0 0 1 1120.2 696)">
   <path d="M9.76562-44.6289C9.76562-42.9688 11.1328-41.6016 12.7441-41.6016L29.9316-41.6016L29.9316-25.0488C29.9316-23.4375 31.25-22.1191 32.9102-22.1191C34.5703-22.1191 35.8887-23.4375 35.8887-25.0488L35.8887-41.6016L53.125-41.6016C54.7363-41.6016 56.1035-42.9688 56.1035-44.6289C56.1035-46.2402 54.7363-47.6074 53.125-47.6074L35.8887-47.6074L35.8887-64.0625C35.8887-65.6738 34.5703-66.9922 32.9102-66.9922C31.25-66.9922 29.9316-65.6738 29.9316-64.0625L29.9316-47.6074L12.7441-47.6074C11.1328-47.6074 9.76562-46.2402 9.76562-44.6289ZM9.76562-6.49414C9.76562-4.83398 11.1328-3.4668 12.7441-3.4668L53.125-3.4668C54.7363-3.4668 56.1035-4.83398 56.1035-6.49414C56.1035-8.10547 54.7363-9.47266 53.125-9.47266L12.7441-9.47266C11.1328-9.47266 9.76562-8.10547 9.76562-6.49414Z"/>
  </g>
  <g id="Thin-S" transform="matrix(1 0 0 1 823.488 696)">
   <path d="M9.76562-43.9941C9.76562-43.0176 10.5469-42.2363 11.5234-42.2363L31.1523-42.2363L31.1523-23.2422C31.1523-22.2656 31.9336-21.4844 32.9102-21.4844C33.8867-21.4844 34.668-22.2656 34.668-23.2422L34.668-42.2363L54.3457-42.2363C55.3223-42.2363 56.1035-43.0176 56.1035-43.9941C56.1035-44.9707 55.3223-45.752 54.3457-45.752L34.668-45.752L34.668-64.5996C34.668-65.5762 33.8867-66.3574 32.9102-66.3574C31.9336-66.3574 31.1523-65.5762 31.1523-64.5996L31.1523-45.752L11.5234-45.752C10.5469-45.752 9.76562-44.9707 9.76562-43.9941ZM9.76562-5.85938C9.76562-4.88281 10.5957-4.10156 11.5234-4.10156L54.3457-4.10156C55.2734-4.10156 56.1035-4.88281 56.1035-5.85938C56.1035-6.83594 55.2734-7.61719 54.3457-7.61719L11.5234-7.61719C10.5957-7.61719 9.76562-6.83594 9.76562-5.85938Z"/>
  </g>
  <g id="Ultralight-S" transform="matrix(1 0 0 1 526.777 696)">
   <path d="M9.76562-43.6523C9.76562-43.0664 10.2539-42.5781 10.8887-42.5781L31.7871-42.5781L31.7871-22.2656C31.7871-21.6797 32.2754-21.1426 32.9102-21.1426C33.5449-21.1426 34.0332-21.6797 34.0332-22.2656L34.0332-42.5781L54.9805-42.5781C55.6152-42.5781 56.1035-43.0664 56.1035-43.6523C56.1035-44.2871 55.6152-44.7754 54.9805-44.7754L34.0332-44.7754L34.0332-64.9414C34.0332-65.5273 33.5449-66.0156 32.9102-66.0156C32.2754-66.0156 31.7871-65.5273 31.7871-64.9414L31.7871-44.7754L10.8887-44.7754C10.2539-44.7754 9.76562-44.2871 9.76562-43.6523ZM9.76562-5.51758C9.76562-4.93164 10.2539-4.44336 10.8887-4.44336L54.9805-4.44336C55.6152-4.44336 56.1035-4.93164 56.1035-5.51758C56.1035-6.15234 55.6152-6.64062 54.9805-6.64062L10.8887-6.64062C10.2539-6.64062 9.76562-6.15234 9.76562-5.51758Z"/>
  </g>
 </g>
</svg>
